RobotoCondensed-Thin.ufo
<glyph name="M" format="2">
  <advance width="1529"/>
  <unicode hex="004D"/>
  <anchor x="774" y="1611" name="top"/>
  <anchor x="766" y="10" name="bottom"/>
  <anchor x="1510" y="1600" name="top_dd"/>
  <anchor x="1510" y="-407" name="bottom_dd"/>
  <anchor x="1510" y="1611" name="top0315"/>
  <anchor x="774" y="1611" name="parent_top"/>
  <outline>
    <contour>
      <point x="207" y="1456" type="line"/>
      <point x="744" y="0" type="line"/>
      <point x="785" y="0" type="line"/>
      <point x="1319" y="1456" type="line"/>
      <point x="1267" y="1456" type="line"/>
      <point x="763" y="87" type="line"/>
      <point x="261" y="1456" type="line"/>
    </contour>
    <contour>
      <point x="188" y="1456" type="line"/>
      <point x="188" y="0" type="line"/>
      <point x="241" y="0" type="line"/>
      <point x="241" y="707" type="line"/>
      <point x="238" y="1456" type="line"/>
    </contour>
    <contour>
      <point x="1290" y="1456" type="line"/>
      <point x="1290" y="707" type="line"/>
      <point x="1290" y="0" type="line"/>
      <point x="1343" y="0" type="line"/>
      <point x="1343" y="1456" type="line"/>
    </contour>
  </outline>
</glyph>
<glyph name="W" format="2">
  <advance width="1610"/>
  <unicode hex="0057"/>
  <anchor x="804" y="1611" name="top"/>
  <anchor x="804" y="10" name="bottom"/>
  <anchor x="1591" y="1600" name="top_dd"/>
  <anchor x="1591" y="-407" name="bottom_dd"/>
  <anchor x="1591" y="1611" name="top0315"/>
  <anchor x="804" y="1611" name="parent_top"/>
  <outline>
    <contour>
      <point x="486" y="327" type="line"/>
      <point x="413" y="0" type="line"/>
      <point x="459" y="0" type="line"/>
      <point x="766" y="1219" type="line"/>
      <point x="826" y="1456" type="line"/>
      <point x="779" y="1456" type="line"/>
    </contour>
    <contour>
      <point x="128" y="1456" type="line"/>
      <point x="70" y="1456" type="line"/>
      <point x="402" y="0" type="line"/>
      <point x="452" y="0" type="line"/>
      <point x="385" y="325" type="line"/>
    </contour>
    <contour>
      <point x="1228" y="326" type="line"/>
      <point x="1153" y="0" type="line"/>
      <point x="1209" y="0" type="line"/>
      <point x="1539" y="1456" type="line"/>
      <point x="1483" y="1456" type="line"/>
    </contour>
    <contour>
      <point x="835" y="1456" type="line"/>
      <point x="787" y="1456" type="line"/>
      <point x="849" y="1219" type="line"/>
      <point x="1150" y="0" type="line"/>
      <point x="1196" y="0" type="line"/>
      <point x="1125" y="327" type="line"/>
    </contour>
  </outline>
</glyph>
<glyph name="kgreenlandic" format="2">
  <advance width="959"/>
  <unicode hex="0138"/>
  <anchor x="495" y="1290" name="top"/>
  <anchor x="495" y="10" name="bottom"/>
  <anchor x="941" y="1290" name="top0315"/>
  <anchor x="495" y="1290" name="parent_top"/>
  <outline>
    <contour>
      <point x="217" y="1082" type="line"/>
      <point x="164" y="1082" type="line"/>
      <point x="164" y="0" type="line"/>
      <point x="217" y="0" type="line"/>
    </contour>
    <contour>
      <point x="839" y="1082" type="line"/>
      <point x="774" y="1082" type="line"/>
      <point x="363" y="581" type="line"/>
      <point x="195" y="581" type="line"/>
      <point x="195" y="532" type="line"/>
      <point x="389" y="532" type="line"/>
    </contour>
    <contour>
      <point x="823" y="0" type="line"/>
      <point x="892" y="0" type="line"/>
      <point x="383" y="581" type="line"/>
      <point x="351" y="534" type="line"/>
    </contour>
  </outline>
</glyph>
<glyph name="ohorn" format="2">
  <advance width="993"/>
  <unicode hex="01A1"/>
  <anchor x="513" y="1290" name="top"/>
  <anchor x="513" y="-10" name="bottom"/>
  <anchor x="974" y="1290" name="top0315"/>
  <anchor x="513" y="1290" name="parent_top"/>
  <outline>
    <contour>
      <point x="952" y="1194" type="line"/>
      <point x="952" y="1039"/>
      <point x="925" y="953"/>
      <point x="770" y="953" type="curve"/>
      <point x="770" y="901" type="line"/>
      <point x="948" y="901"/>
      <point x="1005" y="1005"/>
      <point x="1005" y="1194" type="curve"/>
    </contour>
    <contour>
      <point x="92" y="520" type="line"/>
      <point x="92" y="204"/>
      <point x="257" y="-20"/>
      <point x="496" y="-20" type="curve" smooth="yes"/>
      <point x="738" y="-20"/>
      <point x="899" y="204"/>
      <point x="899" y="520" type="curve"/>
      <point x="899" y="562" type="line"/>
      <point x="899" y="880"/>
      <point x="738" y="1102"/>
      <point x="496" y="1102" type="curve" smooth="yes"/>
      <point x="257" y="1102"/>
      <point x="92" y="880"/>
      <point x="92" y="562" type="curve"/>
    </contour>
    <contour>
      <point x="145" y="562" type="line"/>
      <point x="145" y="817"/>
      <point x="274" y="1051"/>
      <point x="496" y="1051" type="curve" smooth="yes"/>
      <point x="718" y="1051"/>
      <point x="846" y="817"/>
      <point x="846" y="562" type="curve"/>
      <point x="846" y="520" type="line"/>
      <point x="846" y="259"/>
      <point x="718" y="31"/>
      <point x="496" y="31" type="curve" smooth="yes"/>
      <point x="274" y="31"/>
      <point x="145" y="259"/>
      <point x="145" y="520" type="curve"/>
    </contour>
  </outline>
</glyph>
<glyph name="uni0247" format="2">
  <advance width="917"/>
  <unicode hex="0247"/>
  <outline>
    <contour>
      <point x="776" y="1456" type="line"/>
      <point x="723" y="1456" type="line"/>
      <point x="108" y="-416" type="line"/>
      <point x="162" y="-416" type="line"/>
    </contour>
    <contour>
      <point x="497" y="-20" type="curve" smooth="yes"/>
      <point x="645" y="-20"/>
      <point x="742" y="53"/>
      <point x="804" y="153" type="curve"/>
      <point x="766" y="179" type="line"/>
      <point x="693" y="62"/>
      <point x="603" y="30"/>
      <point x="498" y="30" type="curve" smooth="yes"/>
      <point x="297" y="30"/>
      <point x="145" y="245"/>
      <point x="145" y="518" type="curve" smooth="yes"/>
      <point x="145" y="564" type="line" smooth="yes"/>
      <point x="145" y="831"/>
      <point x="280" y="1051"/>
      <point x="479" y="1051" type="curve" smooth="yes"/>
      <point x="661" y="1051"/>
      <point x="777" y="863"/>
      <point x="777" y="644" type="curve" smooth="yes"/>
      <point x="777" y="631" type="line"/>
      <point x="127" y="631" type="line"/>
      <point x="127" y="580" type="line"/>
      <point x="829" y="580" type="line"/>
      <point x="829" y="642" type="line" smooth="yes"/>
      <point x="829" y="915"/>
      <point x="687" y="1102"/>
      <point x="479" y="1102" type="curve" smooth="yes"/>
      <point x="267" y="1102"/>
      <point x="93" y="877"/>
      <point x="93" y="564" type="curve" smooth="yes"/>
      <point x="93" y="518" type="line" smooth="yes"/>
      <point x="93" y="205"/>
      <point x="271" y="-20"/>
    </contour>
  </outline>
</glyph>
<glyph name="uni024F" format="2">
  <advance width="926"/>
  <unicode hex="024F"/>
  <anchor x="459" y="1295" name="top"/>
  <anchor x="627" y="-158" name="bottom"/>
  <anchor x="907" y="1295" name="top0315"/>
  <anchor x="459" y="1295" name="parent_top"/>
  <outline>
    <contour>
      <point x="873" y="639" type="line"/>
      <point x="52" y="639" type="line"/>
      <point x="52" y="587" type="line"/>
      <point x="873" y="587" type="line"/>
    </contour>
    <contour>
      <point x="473" y="103" type="line"/>
      <point x="387" y="-172" type="line" smooth="yes"/>
      <point x="348" y="-297"/>
      <point x="297" y="-388"/>
      <point x="184" y="-388" type="curve" smooth="yes"/>
      <point x="173" y="-388"/>
      <point x="140" y="-383"/>
      <point x="124" y="-379" type="curve"/>
      <point x="124" y="-428" type="line"/>
      <point x="138" y="-434"/>
      <point x="175" y="-437"/>
      <point x="195" y="-437" type="curve" smooth="yes"/>
      <point x="362" y="-437"/>
      <point x="407" y="-269"/>
      <point x="437" y="-179" type="curve" smooth="yes"/>
      <point x="844" y="1082" type="line"/>
      <point x="785" y="1082" type="line"/>
    </contour>
    <contour>
      <point x="135" y="1082" type="line"/>
      <point x="77" y="1082" type="line"/>
      <point x="451" y="-21" type="line"/>
      <point x="492" y="9" type="line"/>
      <point x="476" y="59" type="line"/>
    </contour>
  </outline>
</glyph>
<glyph name="uni0350" format="2">
  <unicode hex="0350"/>
  <anchor x="-496" y="1185" name="_top"/>
  <anchor x="-496" y="1947" name="top"/>
  <anchor x="-496" y="1947" name="parent_top"/>
  <outline>
    <contour>
      <point x="-320" y="1497" type="line"/>
      <point x="-176" y="1565" type="line"/>
      <point x="-176" y="1517" type="line"/>
      <point x="-792" y="1174" type="line"/>
      <point x="-792" y="1232" type="line"/>
    </contour>
    <contour>
      <point x="-792" y="1853" type="line"/>
      <point x="-792" y="1907" type="line"/>
      <point x="-176" y="1570" type="line"/>
      <point x="-176" y="1522" type="line"/>
      <point x="-320" y="1586" type="line"/>
    </contour>
  </outline>
</glyph>
<glyph name="dieresistonos" format="2">
  <advance width="831"/>
  <unicode hex="0385"/>
  <outline>
    <contour>
      <point x="394" y="1418" type="line"/>
      <point x="448" y="1418" type="line"/>
      <point x="488" y="1656" type="line"/>
      <point x="415" y="1656" type="line"/>
    </contour>
    <contour>
      <point x="180" y="1424" type="curve" smooth="yes"/>
      <point x="180" y="1393"/>
      <point x="201" y="1368"/>
      <point x="228" y="1368" type="curve" smooth="yes"/>
      <point x="256" y="1368"/>
      <point x="279" y="1393"/>
      <point x="279" y="1424" type="curve" smooth="yes"/>
      <point x="279" y="1452"/>
      <point x="256" y="1476"/>
      <point x="228" y="1476" type="curve" smooth="yes"/>
      <point x="201" y="1476"/>
      <point x="180" y="1452"/>
    </contour>
    <contour>
      <point x="563" y="1424" type="curve" smooth="yes"/>
      <point x="563" y="1393"/>
      <point x="583" y="1368"/>
      <point x="613" y="1368" type="curve" smooth="yes"/>
      <point x="640" y="1368"/>
      <point x="663" y="1393"/>
      <point x="663" y="1424" type="curve" smooth="yes"/>
      <point x="663" y="1453"/>
      <point x="640" y="1478"/>
      <point x="613" y="1478" type="curve" smooth="yes"/>
      <point x="583" y="1478"/>
      <point x="563" y="1453"/>
    </contour>
  </outline>
</glyph>
<glyph name="Gamma" format="2">
  <advance width="1011"/>
  <unicode hex="0393"/>
  <outline>
    <contour>
      <point x="188" y="0" type="line"/>
      <point x="240" y="0" type="line"/>
      <point x="240" y="1406" type="line"/>
      <point x="932" y="1406" type="line"/>
      <point x="932" y="1456" type="line"/>
      <point x="188" y="1456" type="line"/>
    </contour>
  </outline>
</glyph>
<glyph name="Delta" format="2">
  <advance width="1107"/>
  <unicode hex="0394"/>
  <outline>
    <contour>
      <point x="49" y="0" type="line"/>
      <point x="1057" y="0" type="line"/>
      <point x="1057" y="30" type="line"/>
      <point x="583" y="1456" type="line"/>
      <point x="523" y="1456" type="line"/>
      <point x="49" y="30" type="line"/>
    </contour>
    <contour>
      <point x="112" y="50" type="line"/>
      <point x="553" y="1396" type="line"/>
      <point x="993" y="50" type="line"/>
    </contour>
  </outline>
</glyph>
<glyph name="Lambda" format="2">
  <advance width="1041"/>
  <unicode hex="039B"/>
  <outline>
    <contour>
      <point x="46" y="0" type="line"/>
      <point x="103" y="0" type="line"/>
      <point x="520" y="1395" type="line"/>
      <point x="936" y="0" type="line"/>
      <point x="994" y="0" type="line"/>
      <point x="550" y="1456" type="line"/>
      <point x="490" y="1456" type="line"/>
    </contour>
  </outline>
</glyph>
<glyph name="Pi" format="2">
  <advance width="1238"/>
  <unicode hex="03A0"/>
  <outline>
    <contour>
      <point x="188" y="0" type="line"/>
      <point x="240" y="0" type="line"/>
      <point x="240" y="1406" type="line"/>
      <point x="998" y="1406" type="line"/>
      <point x="998" y="0" type="line"/>
      <point x="1050" y="0" type="line"/>
      <point x="1050" y="1456" type="line"/>
      <point x="188" y="1456" type="line"/>
    </contour>
  </outline>
</glyph>
<glyph name="Sigma" format="2">
  <advance width="1077"/>
  <unicode hex="03A3"/>
  <outline>
    <contour>
      <point x="97" y="0" type="line"/>
      <point x="978" y="0" type="line"/>
      <point x="978" y="51" type="line"/>
      <point x="149" y="51" type="line"/>
      <point x="158" y="37" type="line"/>
      <point x="538" y="736" type="line"/>
      <point x="538" y="753" type="line"/>
      <point x="201" y="1419" type="line"/>
      <point x="175" y="1406" type="line"/>
      <point x="955" y="1406" type="line"/>
      <point x="955" y="1456" type="line"/>
      <point x="135" y="1456" type="line"/>
      <point x="135" y="1417" type="line"/>
      <point x="499" y="699" type="line"/>
      <point x="489" y="761" type="line"/>
      <point x="97" y="36" type="line"/>
    </contour>
  </outline>
</glyph>
<glyph name="Phi" format="2">
  <advance width="1444"/>
  <unicode hex="03A6"/>
  <outline>
    <contour>
      <point x="696" y="-20" type="line"/>
      <point x="749" y="-20" type="line"/>
      <point x="749" y="222" type="line"/>
      <point x="759" y="222" type="line"/>
      <point x="1131" y="222"/>
      <point x="1306" y="424"/>
      <point x="1306" y="742" type="curve" smooth="yes"/>
      <point x="1306" y="1059"/>
      <point x="1133" y="1259"/>
      <point x="759" y="1259" type="curve"/>
      <point x="749" y="1259" type="line"/>
      <point x="749" y="1476" type="line"/>
      <point x="696" y="1476" type="line"/>
      <point x="696" y="1259" type="line"/>
      <point x="686" y="1259" type="line"/>
      <point x="313" y="1259"/>
      <point x="139" y="1059"/>
      <point x="139" y="742" type="curve" smooth="yes"/>
      <point x="139" y="423"/>
      <point x="315" y="222"/>
      <point x="686" y="222" type="curve"/>
      <point x="696" y="222" type="line"/>
    </contour>
    <contour>
      <point x="696" y="271" type="line"/>
      <point x="686" y="271" type="line"/>
      <point x="333" y="271"/>
      <point x="192" y="469"/>
      <point x="192" y="741" type="curve" smooth="yes"/>
      <point x="192" y="1010"/>
      <point x="333" y="1210"/>
      <point x="686" y="1210" type="curve"/>
      <point x="696" y="1210" type="line"/>
    </contour>
    <contour>
      <point x="749" y="271" type="line"/>
      <point x="749" y="1210" type="line"/>
      <point x="759" y="1210" type="line"/>
      <point x="1111" y="1210"/>
      <point x="1252" y="1013"/>
      <point x="1252" y="743" type="curve" smooth="yes"/>
      <point x="1252" y="472"/>
      <point x="1111" y="271"/>
      <point x="759" y="271" type="curve"/>
    </contour>
  </outline>
</glyph>
<glyph name="Omega" format="2">
  <advance width="1220"/>
  <unicode hex="03A9"/>
  <anchor x="158" y="1456.0" name="GRK_topleft"/>
  <outline>
    <contour>
      <point x="141" y="0" type="line"/>
      <point x="534" y="0" type="line"/>
      <point x="534" y="357" type="line"/>
      <point x="313" y="389"/>
      <point x="192" y="595"/>
      <point x="192" y="844" type="curve" smooth="yes"/>
      <point x="192" y="912" type="line" smooth="yes"/>
      <point x="192" y="1246"/>
      <point x="332" y="1425"/>
      <point x="610" y="1425" type="curve"/>
      <point x="889" y="1425"/>
      <point x="1028" y="1246"/>
      <point x="1028" y="912" type="curve" smooth="yes"/>
      <point x="1028" y="844" type="line" smooth="yes"/>
      <point x="1028" y="595"/>
      <point x="908" y="389"/>
      <point x="687" y="357" type="curve"/>
      <point x="687" y="0" type="line"/>
      <point x="1080" y="0" type="line"/>
      <point x="1080" y="51" type="line"/>
      <point x="736" y="51" type="line"/>
      <point x="736" y="316" type="line"/>
      <point x="1001" y="390"/>
      <point x="1082" y="629"/>
      <point x="1082" y="840" type="curve" smooth="yes"/>
      <point x="1082" y="896" type="line" smooth="yes"/>
      <point x="1083" y="1268"/>
      <point x="927" y="1476"/>
      <point x="610" y="1476" type="curve"/>
      <point x="294" y="1476"/>
      <point x="138" y="1268"/>
      <point x="139" y="896" type="curve" smooth="yes"/>
      <point x="139" y="840" type="line" smooth="yes"/>
      <point x="139" y="629"/>
      <point x="220" y="390"/>
      <point x="485" y="316" type="curve"/>
      <point x="485" y="51" type="line"/>
      <point x="141" y="51" type="line"/>
    </contour>
  </outline>
</glyph>
<glyph name="alpha" format="2">
  <advance width="1088"/>
  <unicode hex="03B1"/>
  <anchor x="502.0" y="1082" name="GRK_top"/>
  <outline>
    <contour>
      <point x="509" y="-22" type="curve"/>
      <point x="664" y="-22"/>
      <point x="758" y="62"/>
      <point x="817" y="137" type="curve"/>
      <point x="818" y="137" type="line"/>
      <point x="818" y="10"/>
      <point x="876" y="-20"/>
      <point x="941" y="-20" type="curve"/>
      <point x="958" y="-20"/>
      <point x="985" y="-17"/>
      <point x="1005" y="-9" type="curve"/>
      <point x="1004" y="42" type="line"/>
      <point x="989" y="36"/>
      <point x="970" y="31"/>
      <point x="948" y="31" type="curve" smooth="yes"/>
      <point x="903" y="31"/>
      <point x="870" y="43"/>
      <point x="870" y="141" type="curve" smooth="yes"/>
      <point x="870" y="1082" type="line"/>
      <point x="820" y="1082" type="line"/>
      <point x="819" y="950" type="line"/>
      <point x="818" y="950" type="line"/>
      <point x="741" y="1053"/>
      <point x="618" y="1102"/>
      <point x="503" y="1102" type="curve"/>
      <point x="243" y="1102"/>
      <point x="121" y="921"/>
      <point x="121" y="554" type="curve" smooth="yes"/>
      <point x="121" y="523" type="line" smooth="yes"/>
      <point x="121" y="139"/>
      <point x="257" y="-22"/>
    </contour>
    <contour>
      <point x="508" y="30" type="curve" smooth="yes"/>
      <point x="272" y="30"/>
      <point x="176" y="189"/>
      <point x="176" y="510" type="curve" smooth="yes"/>
      <point x="176" y="594" type="line" smooth="yes"/>
      <point x="176" y="895"/>
      <point x="290" y="1051"/>
      <point x="505" y="1051" type="curve" smooth="yes"/>
      <point x="658" y="1051"/>
      <point x="776" y="962"/>
      <point x="818" y="873" type="curve"/>
      <point x="818" y="218" type="line"/>
      <point x="766" y="118"/>
      <point x="658" y="30"/>
    </contour>
  </outline>
</glyph>
<glyph name="beta" format="2">
  <advance width="1049"/>
  <unicode hex="03B2"/>
  <outline>
    <contour>
      <point x="161" y="-416" type="line"/>
      <point x="214" y="-416" type="line"/>
      <point x="214" y="141" type="line"/>
      <point x="296" y="29"/>
      <point x="423" y="-22"/>
      <point x="535" y="-22" type="curve"/>
      <point x="769" y="-22"/>
      <point x="928" y="110"/>
      <point x="928" y="440" type="curve"/>
      <point x="928" y="668"/>
      <point x="815" y="816"/>
      <point x="612" y="836" type="curve"/>
      <point x="612" y="838" type="line"/>
      <point x="749" y="862"/>
      <point x="858" y="995"/>
      <point x="858" y="1191" type="curve"/>
      <point x="858" y="1449"/>
      <point x="703" y="1557"/>
      <point x="521" y="1557" type="curve" smooth="yes"/>
      <point x="311" y="1557"/>
      <point x="161" y="1413"/>
      <point x="161" y="1096" type="curve" smooth="yes"/>
    </contour>
    <contour>
      <point x="529" y="30" type="curve"/>
      <point x="360" y="30"/>
      <point x="240" y="150"/>
      <point x="214" y="216" type="curve"/>
      <point x="214" y="1097" type="line" smooth="yes"/>
      <point x="214" y="1332"/>
      <point x="303" y="1506"/>
      <point x="518" y="1506" type="curve" smooth="yes"/>
      <point x="691" y="1506"/>
      <point x="807" y="1397"/>
      <point x="807" y="1190" type="curve"/>
      <point x="807" y="955"/>
      <point x="641" y="863"/>
      <point x="509" y="863" type="curve" smooth="yes"/>
      <point x="400" y="863" type="line"/>
      <point x="400" y="806" type="line"/>
      <point x="508" y="806" type="line" smooth="yes"/>
      <point x="735" y="806"/>
      <point x="877" y="700"/>
      <point x="877" y="438" type="curve"/>
      <point x="877" y="152"/>
      <point x="742" y="30"/>
    </contour>
  </outline>
</glyph>
<glyph name="gamma" format="2">
  <advance width="869"/>
  <unicode hex="03B3"/>
  <outline>
    <contour>
      <point x="408" y="-366" type="line"/>
      <point x="461" y="-366" type="line"/>
      <point x="461" y="1" type="line"/>
      <point x="815" y="1082" type="line"/>
      <point x="760" y="1082" type="line"/>
      <point x="436" y="89" type="line"/>
      <point x="111" y="1082" type="line"/>
      <point x="55" y="1082" type="line"/>
      <point x="408" y="1" type="line"/>
    </contour>
  </outline>
</glyph>
<glyph name="delta" format="2">
  <advance width="1006"/>
  <unicode hex="03B4"/>
  <outline>
    <contour>
      <point x="508" y="-22" type="curve"/>
      <point x="759" y="-22"/>
      <point x="888" y="176"/>
      <point x="888" y="462" type="curve"/>
      <point x="888" y="471" type="line"/>
      <point x="888" y="759"/>
      <point x="751" y="894"/>
      <point x="585" y="1014" type="curve" smooth="yes"/>
      <point x="368" y="1171"/>
      <point x="322" y="1213"/>
      <point x="322" y="1319" type="curve" smooth="yes"/>
      <point x="322" y="1413"/>
      <point x="378" y="1506"/>
      <point x="566" y="1506" type="curve"/>
      <point x="674" y="1506"/>
      <point x="750" y="1472"/>
      <point x="800" y="1434" type="curve"/>
      <point x="828" y="1477" type="line"/>
      <point x="780" y="1517"/>
      <point x="686" y="1557"/>
      <point x="569" y="1557" type="curve"/>
      <point x="376" y="1557"/>
      <point x="270" y="1461"/>
      <point x="270" y="1318" type="curve" smooth="yes"/>
      <point x="270" y="1194"/>
      <point x="338" y="1127"/>
      <point x="537" y="992" type="curve"/>
      <point x="757" y="845"/>
      <point x="837" y="689"/>
      <point x="837" y="478" type="curve"/>
      <point x="837" y="472" type="line"/>
      <point x="837" y="220"/>
      <point x="729" y="30"/>
      <point x="509" y="30" type="curve"/>
      <point x="258" y="30"/>
      <point x="168" y="253"/>
      <point x="168" y="474" type="curve"/>
      <point x="168" y="494" type="line"/>
      <point x="168" y="743"/>
      <point x="296" y="963"/>
      <point x="592" y="982" type="curve"/>
      <point x="539" y="1020" type="line"/>
      <point x="222" y="976"/>
      <point x="116" y="733"/>
      <point x="116" y="492" type="curve"/>
      <point x="116" y="476" type="line"/>
      <point x="116" y="175"/>
      <point x="255" y="-22"/>
    </contour>
  </outline>
</glyph>
<glyph name="epsilon" format="2">
  <advance width="935"/>
  <unicode hex="03B5"/>
  <anchor x="479" y="1082" name="GRK_top"/>
  <outline>
    <contour>
      <point x="441" y="-22" type="curve"/>
      <point x="732" y="-22"/>
      <point x="819" y="112"/>
      <point x="829" y="352" type="curve"/>
      <point x="777" y="352" type="line"/>
      <point x="766" y="108"/>
      <point x="681" y="30"/>
      <point x="437" y="30" type="curve"/>
      <point x="224" y="30"/>
      <point x="147" y="127"/>
      <point x="147" y="280" type="curve"/>
      <point x="147" y="421"/>
      <point x="222" y="521"/>
      <point x="395" y="521" type="curve"/>
      <point x="589" y="521" type="line"/>
      <point x="589" y="574" type="line"/>
      <point x="395" y="574" type="line"/>
      <point x="253" y="574"/>
      <point x="178" y="649"/>
      <point x="178" y="789" type="curve"/>
      <point x="178" y="920"/>
      <point x="249" y="1051"/>
      <point x="480" y="1051" type="curve" smooth="yes"/>
      <point x="729" y="1051"/>
      <point x="769" y="878"/>
      <point x="775" y="729" type="curve"/>
      <point x="827" y="729" type="line"/>
      <point x="820" y="941"/>
      <point x="741" y="1102"/>
      <point x="480" y="1102" type="curve" smooth="yes"/>
      <point x="268" y="1102"/>
      <point x="127" y="985"/>
      <point x="127" y="786" type="curve"/>
      <point x="127" y="653"/>
      <point x="189" y="557"/>
      <point x="334" y="534" type="curve"/>
      <point x="334" y="551" type="line"/>
      <point x="166" y="534"/>
      <point x="96" y="425"/>
      <point x="96" y="270" type="curve"/>
      <point x="96" y="77"/>
      <point x="229" y="-22"/>
    </contour>
  </outline>
</glyph>
<glyph name="zeta" format="2">
  <advance width="735"/>
  <unicode hex="03B6"/>
  <outline>
    <contour>
      <point x="591" y="-348" type="curve"/>
      <point x="640" y="-348" type="line"/>
      <point x="655" y="-310"/>
      <point x="677" y="-231"/>
      <point x="677" y="-161" type="curve" smooth="yes"/>
      <point x="677" y="-36"/>
      <point x="621" y="16"/>
      <point x="452" y="69" type="curve" smooth="yes"/>
      <point x="420" y="79" type="line" smooth="yes"/>
      <point x="259" y="127"/>
      <point x="155" y="177"/>
      <point x="155" y="338" type="curve" smooth="yes"/>
      <point x="155" y="490"/>
      <point x="217" y="642"/>
      <point x="385" y="917" type="curve" smooth="yes"/>
      <point x="734" y="1486" type="line"/>
      <point x="734" y="1536" type="line"/>
      <point x="101" y="1536" type="line"/>
      <point x="101" y="1479" type="line"/>
      <point x="695" y="1479" type="line"/>
      <point x="691" y="1514" type="line"/>
      <point x="342" y="943" type="line" smooth="yes"/>
      <point x="198" y="708"/>
      <point x="103" y="515"/>
      <point x="103" y="337" type="curve"/>
      <point x="103" y="183"/>
      <point x="185" y="96"/>
      <point x="395" y="33" type="curve" smooth="yes"/>
      <point x="442" y="19" type="line" smooth="yes"/>
      <point x="585" y="-24"/>
      <point x="626" y="-60"/>
      <point x="626" y="-165" type="curve" smooth="yes"/>
      <point x="626" y="-228"/>
      <point x="611" y="-287"/>
    </contour>
  </outline>
</glyph>
<glyph name="kappa" format="2">
  <advance width="864"/>
  <unicode hex="03BA"/>
  <outline>
    <contour>
      <point x="163" y="0" type="line"/>
      <point x="215" y="0" type="line"/>
      <point x="215" y="528" type="line"/>
      <point x="404" y="528" type="line"/>
      <point x="766" y="0" type="line"/>
      <point x="831" y="0" type="line"/>
      <point x="451" y="555" type="line"/>
      <point x="781" y="1082" type="line"/>
      <point x="716" y="1082" type="line"/>
      <point x="402" y="581" type="line"/>
      <point x="215" y="581" type="line"/>
      <point x="215" y="1082" type="line"/>
      <point x="163" y="1082" type="line"/>
    </contour>
  </outline>
</glyph>
<glyph name="lambda" format="2">
  <advance width="978"/>
  <unicode hex="03BB"/>
  <outline>
    <contour>
      <point x="55" y="0" type="line"/>
      <point x="475" y="1088" type="line"/>
      <point x="404" y="1281" type="line" smooth="yes"/>
      <point x="332" y="1477"/>
      <point x="271" y="1507"/>
      <point x="186" y="1507" type="curve"/>
      <point x="130" y="1507"/>
      <point x="97" y="1490"/>
      <point x="79" y="1481" type="curve"/>
      <point x="75" y="1531" type="line"/>
      <point x="106" y="1547"/>
      <point x="146" y="1557"/>
      <point x="188" y="1557" type="curve"/>
      <point x="298" y="1557"/>
      <point x="370" y="1525"/>
      <point x="453" y="1300" type="curve" smooth="yes"/>
      <point x="932" y="0" type="line"/>
      <point x="876" y="0" type="line"/>
      <point x="503" y="1012" type="line"/>
      <point x="111" y="0" type="line"/>
    </contour>
  </outline>
</glyph>
<glyph name="xi" format="2">
  <advance width="818"/>
  <unicode hex="03BE"/>
  <outline>
    <contour>
      <point x="619" y="-348" type="curve"/>
      <point x="668" y="-348" type="line"/>
      <point x="683" y="-310"/>
      <point x="705" y="-231"/>
      <point x="705" y="-161" type="curve" smooth="yes"/>
      <point x="705" y="-36"/>
      <point x="649" y="16"/>
      <point x="480" y="69" type="curve" smooth="yes"/>
      <point x="448" y="79" type="line" smooth="yes"/>
      <point x="289" y="129"/>
      <point x="153" y="186"/>
      <point x="153" y="406" type="curve"/>
      <point x="153" y="640"/>
      <point x="291" y="751"/>
      <point x="483" y="751" type="curve"/>
      <point x="671" y="751" type="line"/>
      <point x="671" y="808" type="line"/>
      <point x="483" y="808" type="line"/>
      <point x="296" y="810"/>
      <point x="191" y="941"/>
      <point x="191" y="1103" type="curve"/>
      <point x="191" y="1319"/>
      <point x="302" y="1483"/>
      <point x="717" y="1483" type="curve"/>
      <point x="717" y="1536" type="line"/>
      <point x="111" y="1536" type="line"/>
      <point x="111" y="1479" type="line"/>
      <point x="476" y="1479" type="line"/>
      <point x="476" y="1483" type="line"/>
      <point x="291" y="1467"/>
      <point x="141" y="1348"/>
      <point x="141" y="1102" type="curve"/>
      <point x="141" y="941"/>
      <point x="229" y="810"/>
      <point x="400" y="771" type="curve"/>
      <point x="400" y="782" type="line"/>
      <point x="178" y="737"/>
      <point x="101" y="577"/>
      <point x="101" y="407" type="curve"/>
      <point x="101" y="193"/>
      <point x="216" y="95"/>
      <point x="423" y="33" type="curve" smooth="yes"/>
      <point x="470" y="19" type="line" smooth="yes"/>
      <point x="613" y="-24"/>
      <point x="654" y="-60"/>
      <point x="654" y="-165" type="curve" smooth="yes"/>
      <point x="654" y="-228"/>
      <point x="639" y="-287"/>
    </contour>
  </outline>
</glyph>
<glyph name="rho" format="2">
  <advance width="1032"/>
  <unicode hex="03C1"/>
  <outline>
    <contour>
      <point x="142" y="-416" type="line"/>
      <point x="194" y="-416" type="line"/>
      <point x="194" y="131" type="line"/>
      <point x="234" y="74"/>
      <point x="326" y="-22"/>
      <point x="518" y="-22" type="curve"/>
      <point x="754" y="-22"/>
      <point x="911" y="127"/>
      <point x="911" y="509" type="curve" smooth="yes"/>
      <point x="911" y="576" type="line" smooth="yes"/>
      <point x="911" y="906"/>
      <point x="791" y="1102"/>
      <point x="530" y="1102" type="curve" smooth="yes"/>
      <point x="291" y="1102"/>
      <point x="142" y="937"/>
      <point x="142" y="618" type="curve"/>
    </contour>
    <contour>
      <point x="519" y="30" type="curve" smooth="yes"/>
      <point x="305" y="30"/>
      <point x="219" y="162"/>
      <point x="194" y="208" type="curve"/>
      <point x="194" y="613" type="line" smooth="yes"/>
      <point x="194" y="851"/>
      <point x="289" y="1051"/>
      <point x="527" y="1051" type="curve" smooth="yes"/>
      <point x="745" y="1051"/>
      <point x="860" y="909"/>
      <point x="860" y="566" type="curve" smooth="yes"/>
      <point x="860" y="498" type="line" smooth="yes"/>
      <point x="860" y="195"/>
      <point x="744" y="30"/>
    </contour>
  </outline>
</glyph>
<glyph name="tau" format="2">
  <advance width="736"/>
  <unicode hex="03C4"/>
  <outline>
    <contour>
      <point x="35" y="1025" type="line"/>
      <point x="713" y="1025" type="line"/>
      <point x="713" y="1082" type="line"/>
      <point x="35" y="1082" type="line"/>
    </contour>
    <contour>
      <point x="523" y="-20" type="curve" smooth="yes"/>
      <point x="550" y="-20"/>
      <point x="597" y="-18"/>
      <point x="621" y="-9" type="curve"/>
      <point x="613" y="40" type="line"/>
      <point x="582" y="34"/>
      <point x="559" y="31"/>
      <point x="522" y="31" type="curve" smooth="yes"/>
      <point x="451" y="31"/>
      <point x="388" y="66"/>
      <point x="388" y="259" type="curve"/>
      <point x="388" y="1054" type="line"/>
      <point x="334" y="1054" type="line"/>
      <point x="334" y="259" type="line"/>
      <point x="334" y="42"/>
      <point x="406" y="-20"/>
    </contour>
  </outline>
</glyph>
<glyph name="phi" format="2">
  <advance width="1200"/>
  <unicode hex="03C6"/>
  <outline>
    <contour>
      <point x="571" y="-480" type="line"/>
      <point x="623" y="-480" type="line"/>
      <point x="623" y="893" type="line"/>
      <point x="623" y="978"/>
      <point x="669" y="1031"/>
      <point x="723" y="1031" type="curve"/>
      <point x="899" y="1031"/>
      <point x="1019" y="803"/>
      <point x="1020" y="544" type="curve"/>
      <point x="1020" y="283"/>
      <point x="884" y="30"/>
      <point x="605" y="30" type="curve" smooth="yes"/>
      <point x="276" y="30"/>
      <point x="187" y="283"/>
      <point x="187" y="543" type="curve"/>
      <point x="187" y="754"/>
      <point x="265" y="956"/>
      <point x="383" y="1041" type="curve"/>
      <point x="359" y="1084" type="line"/>
      <point x="237" y="993"/>
      <point x="137" y="807"/>
      <point x="137" y="545" type="curve" smooth="yes"/>
      <point x="137" y="213"/>
      <point x="270" y="-21"/>
      <point x="603" y="-21" type="curve" smooth="yes"/>
      <point x="915" y="-21"/>
      <point x="1071" y="246"/>
      <point x="1071" y="546" type="curve" smooth="yes"/>
      <point x="1071" y="861"/>
      <point x="923" y="1082"/>
      <point x="723" y="1082" type="curve"/>
      <point x="653" y="1082"/>
      <point x="571" y="1023"/>
      <point x="571" y="895" type="curve"/>
    </contour>
  </outline>
</glyph>
<glyph name="chi" format="2">
  <advance width="874"/>
  <unicode hex="03C7"/>
  <outline>
    <contour>
      <point x="36" y="-416" type="line"/>
      <point x="102" y="-416" type="line"/>
      <point x="424" y="298" type="line"/>
      <point x="433" y="298" type="line"/>
      <point x="794" y="1082" type="line"/>
      <point x="728" y="1082" type="line"/>
      <point x="406" y="368" type="line"/>
      <point x="397" y="368" type="line"/>
    </contour>
    <contour>
      <point x="701" y="-416" type="line"/>
      <point x="770" y="-416" type="line"/>
      <point x="448" y="359" type="line"/>
      <point x="440" y="359" type="line"/>
      <point x="149" y="1082" type="line"/>
      <point x="80" y="1082" type="line"/>
      <point x="396" y="322" type="line"/>
      <point x="404" y="322" type="line"/>
    </contour>
  </outline>
</glyph>
<glyph name="omega" format="2">
  <advance width="1465"/>
  <unicode hex="03C9"/>
  <anchor x="727" y="1082" name="GRK_top"/>
  <outline>
    <contour>
      <point x="442" y="-22" type="curve" smooth="yes"/>
      <point x="599" y="-22"/>
      <point x="711" y="86"/>
      <point x="733" y="231" type="curve"/>
      <point x="730" y="231" type="line"/>
      <point x="752" y="86"/>
      <point x="864" y="-22"/>
      <point x="1021" y="-22" type="curve" smooth="yes"/>
      <point x="1233" y="-22"/>
      <point x="1347" y="128"/>
      <point x="1347" y="442" type="curve"/>
      <point x="1347" y="766"/>
      <point x="1236" y="976"/>
      <point x="1146" y="1082" type="curve"/>
      <point x="1085" y="1082" type="line"/>
      <point x="1172" y="987"/>
      <point x="1295" y="779"/>
      <point x="1295" y="440" type="curve"/>
      <point x="1295" y="183"/>
      <point x="1217" y="30"/>
      <point x="1023" y="30" type="curve"/>
      <point x="871" y="30"/>
      <point x="758" y="119"/>
      <point x="758" y="384" type="curve" smooth="yes"/>
      <point x="758" y="719" type="line"/>
      <point x="705" y="719" type="line"/>
      <point x="705" y="384" type="line"/>
      <point x="705" y="119"/>
      <point x="592" y="30"/>
      <point x="440" y="30" type="curve"/>
      <point x="246" y="30"/>
      <point x="168" y="183"/>
      <point x="168" y="440" type="curve"/>
      <point x="168" y="779"/>
      <point x="291" y="987"/>
      <point x="378" y="1082" type="curve"/>
      <point x="317" y="1082" type="line"/>
      <point x="227" y="976"/>
      <point x="116" y="766"/>
      <point x="116" y="442" type="curve"/>
      <point x="116" y="128"/>
      <point x="230" y="-22"/>
    </contour>
  </outline>
</glyph>
<glyph name="uni0409" format="2">
  <advance width="1848"/>
  <unicode hex="0409"/>
  <outline>
    <contour>
      <point x="389" y="1456" type="line"/>
      <point x="355" y="825" type="line" smooth="yes"/>
      <point x="320" y="194"/>
      <point x="268" y="51"/>
      <point x="94" y="50" type="curve" smooth="yes"/>
      <point x="64" y="51" type="line"/>
      <point x="64" y="0" type="line"/>
      <point x="93" y="0" type="line" smooth="yes"/>
      <point x="331" y="0"/>
      <point x="373" y="225"/>
      <point x="407" y="825" type="curve" smooth="yes"/>
      <point x="441" y="1456" type="line"/>
    </contour>
    <contour>
      <point x="971" y="1456" type="line"/>
      <point x="411" y="1456" type="line"/>
      <point x="411" y="1406" type="line"/>
      <point x="971" y="1406" type="line"/>
    </contour>
    <contour>
      <point x="969" y="806" type="line"/>
      <point x="969" y="755" type="line"/>
      <point x="1314" y="755" type="line" smooth="yes"/>
      <point x="1562" y="755"/>
      <point x="1663" y="583"/>
      <point x="1663" y="404" type="curve" smooth="yes"/>
      <point x="1663" y="220"/>
      <point x="1562" y="51"/>
      <point x="1314" y="51" type="curve" smooth="yes"/>
      <point x="1002" y="51" type="line"/>
      <point x="1002" y="1456" type="line"/>
      <point x="951" y="1456" type="line"/>
      <point x="951" y="0" type="line"/>
      <point x="1314" y="0" type="line" smooth="yes"/>
      <point x="1579" y="0"/>
      <point x="1717" y="172"/>
      <point x="1717" y="402" type="curve" smooth="yes"/>
      <point x="1717" y="633"/>
      <point x="1580" y="806"/>
      <point x="1314" y="806" type="curve" smooth="yes"/>
    </contour>
  </outline>
</glyph>
<glyph name="uni043C" format="2">
  <advance width="1292"/>
  <unicode hex="043C"/>
  <anchor x="647" y="1269" name="top"/>
  <anchor x="1273" y="1269" name="top0315"/>
  <anchor x="647" y="1269" name="parent_top"/>
  <outline>
    <contour>
      <point x="654" y="78" type="line"/>
      <point x="242" y="1082" type="line"/>
      <point x="186" y="1082" type="line"/>
      <point x="632" y="0" type="line"/>
      <point x="673" y="0" type="line"/>
      <point x="1123" y="1082" type="line"/>
      <point x="1065" y="1082" type="line"/>
    </contour>
    <contour>
      <point x="224" y="1082" type="line"/>
      <point x="170" y="1082" type="line"/>
      <point x="170" y="0" type="line"/>
      <point x="224" y="0" type="line"/>
    </contour>
    <contour>
      <point x="1075" y="0" type="line"/>
      <point x="1129" y="0" type="line"/>
      <point x="1129" y="1082" type="line"/>
      <point x="1075" y="1082" type="line"/>
    </contour>
  </outline>
</glyph>
<glyph name="uni050C" format="2">
  <advance width="1108"/>
  <unicode hex="050C"/>
  <anchor x="595" y="1633" name="top"/>
  <anchor x="595" y="-10" name="bottom"/>
  <anchor x="1089" y="1633" name="top0315"/>
  <anchor x="595" y="1633" name="parent_top"/>
  <outline>
    <contour>
      <point x="606" y="-21" type="curve" smooth="yes"/>
      <point x="814" y="-21"/>
      <point x="997" y="124"/>
      <point x="1001" y="424" type="curve"/>
      <point x="1003" y="547"/>
      <point x="982" y="669"/>
      <point x="961" y="786" type="curve"/>
      <point x="906" y="786" type="line"/>
      <point x="931" y="668"/>
      <point x="950" y="544"/>
      <point x="948" y="424" type="curve" smooth="yes"/>
      <point x="945" y="183"/>
      <point x="826" y="32"/>
      <point x="606" y="30" type="curve"/>
      <point x="350" y="30"/>
      <point x="201" y="283"/>
      <point x="201" y="597" type="curve" smooth="yes"/>
      <point x="201" y="861" type="line" smooth="yes"/>
      <point x="201" y="1172"/>
      <point x="350" y="1427"/>
      <point x="606" y="1427" type="curve" smooth="yes"/>
      <point x="704" y="1427"/>
      <point x="784" y="1403"/>
      <point x="858" y="1359" type="curve"/>
      <point x="877" y="1414" type="line"/>
      <point x="810" y="1456"/>
      <point x="722" y="1477"/>
      <point x="606" y="1477" type="curve" smooth="yes"/>
      <point x="332" y="1477"/>
      <point x="147" y="1213"/>
      <point x="147" y="859" type="curve"/>
      <point x="147" y="597" type="line"/>
      <point x="147" y="243"/>
      <point x="332" y="-21"/>
    </contour>
  </outline>
</glyph>
<glyph name="uni050E" format="2">
  <advance width="1263"/>
  <unicode hex="050E"/>
  <anchor x="539" y="1612" name="top"/>
  <anchor x="539" y="10" name="bottom"/>
  <anchor x="1244" y="1612" name="top0315"/>
  <anchor x="539" y="1612" name="parent_top"/>
  <outline>
    <contour>
      <point x="1023" y="1456" type="line"/>
      <point x="45" y="1456" type="line"/>
      <point x="45" y="1406" type="line"/>
      <point x="1023" y="1406" type="line"/>
    </contour>
    <contour>
      <point x="508" y="345" type="line"/>
      <point x="517" y="83"/>
      <point x="608" y="-25"/>
      <point x="753" y="-21" type="curve"/>
      <point x="950" y="-21"/>
      <point x="1093" y="158"/>
      <point x="1097" y="529" type="curve"/>
      <point x="1100" y="666"/>
      <point x="1069" y="802"/>
      <point x="1041" y="932" type="curve"/>
      <point x="988" y="930" type="line"/>
      <point x="1021" y="797"/>
      <point x="1046" y="662"/>
      <point x="1045" y="529" type="curve"/>
      <point x="1041" y="225"/>
      <point x="941" y="32"/>
      <point x="753" y="30" type="curve"/>
      <point x="637" y="30"/>
      <point x="562" y="128"/>
      <point x="563" y="345" type="curve"/>
      <point x="563" y="1456" type="line"/>
      <point x="508" y="1456" type="line"/>
    </contour>
  </outline>
</glyph>
<glyph name="uni1D0B" format="2">
  <advance width="904"/>
  <unicode hex="1D0B"/>
  <anchor x="421" y="1290" name="top"/>
  <anchor x="421" y="0" name="bottom"/>
  <anchor x="885" y="1290" name="top0315"/>
  <anchor x="421" y="1290" name="parent_top"/>
  <outline>
    <contour>
      <point x="216" y="1082" type="line"/>
      <point x="163" y="1082" type="line"/>
      <point x="163" y="0" type="line"/>
      <point x="216" y="0" type="line"/>
    </contour>
    <contour>
      <point x="823" y="1082" type="line"/>
      <point x="749" y="1082" type="line"/>
      <point x="387" y="581" type="line"/>
      <point x="197" y="581" type="line"/>
      <point x="194" y="531" type="line"/>
      <point x="413" y="531" type="line"/>
    </contour>
    <contour>
      <point x="799" y="0" type="line"/>
      <point x="873" y="0" type="line"/>
      <point x="407" y="583" type="line"/>
      <point x="375" y="535" type="line"/>
    </contour>
  </outline>
</glyph>
<glyph name="uni1DAB" format="2">
  <advance width="603"/>
  <unicode hex="1DAB"/>
  <outline>
    <contour>
      <point x="549" y="703" type="line"/>
      <point x="140" y="703" type="line"/>
      <point x="140" y="651" type="line"/>
      <point x="549" y="651" type="line"/>
    </contour>
    <contour>
      <point x="171" y="1458" type="line"/>
      <point x="120" y="1458" type="line"/>
      <point x="120" y="651" type="line"/>
      <point x="171" y="651" type="line"/>
    </contour>
  </outline>
</glyph>
<glyph name="uni1DB1" format="2">
  <advance width="769"/>
  <unicode hex="1DB1"/>
  <outline>
    <contour>
      <point x="86" y="1030" type="line"/>
      <point x="86" y="794"/>
      <point x="206" y="629"/>
      <point x="384" y="629" type="curve" smooth="yes"/>
      <point x="563" y="629"/>
      <point x="683" y="794"/>
      <point x="683" y="1030" type="curve" smooth="yes"/>
      <point x="683" y="1061" type="line" smooth="yes"/>
      <point x="683" y="1295"/>
      <point x="563" y="1459"/>
      <point x="383" y="1459" type="curve" smooth="yes"/>
      <point x="206" y="1459"/>
      <point x="86" y="1295"/>
      <point x="86" y="1061" type="curve" smooth="yes"/>
    </contour>
    <contour>
      <point x="138" y="1061" type="line"/>
      <point x="138" y="1250"/>
      <point x="222" y="1410"/>
      <point x="383" y="1410" type="curve" smooth="yes"/>
      <point x="548" y="1410"/>
      <point x="632" y="1250"/>
      <point x="632" y="1061" type="curve" smooth="yes"/>
      <point x="632" y="1030" type="line" smooth="yes"/>
      <point x="632" y="839"/>
      <point x="548" y="680"/>
      <point x="384" y="680" type="curve" smooth="yes"/>
      <point x="222" y="680"/>
      <point x="138" y="839"/>
      <point x="138" y="1030" type="curve" smooth="yes"/>
    </contour>
    <contour>
      <point x="648" y="1073" type="line"/>
      <point x="122" y="1073" type="line"/>
      <point x="122" y="1023" type="line"/>
      <point x="648" y="1023" type="line"/>
    </contour>
  </outline>
</glyph>
<glyph name="uni1DB5" format="2">
  <advance width="444"/>
  <unicode hex="1DB5"/>
  <outline>
    <contour>
      <point x="372" y="1458" type="line"/>
      <point x="53" y="1458" type="line"/>
      <point x="53" y="1405" type="line"/>
      <point x="372" y="1405" type="line"/>
    </contour>
    <contour>
      <point x="178" y="1673" type="line"/>
      <point x="178" y="862" type="line" smooth="yes"/>
      <point x="178" y="700"/>
      <point x="232" y="641"/>
      <point x="318" y="641" type="curve" smooth="yes"/>
      <point x="343" y="641"/>
      <point x="368" y="643"/>
      <point x="391" y="654" type="curve"/>
      <point x="391" y="699" type="line"/>
      <point x="369" y="694"/>
      <point x="343" y="690"/>
      <point x="321" y="690" type="curve" smooth="yes"/>
      <point x="271" y="690"/>
      <point x="229" y="719"/>
      <point x="229" y="860" type="curve" smooth="yes"/>
      <point x="229" y="1673" type="line"/>
    </contour>
    <contour>
      <point x="338" y="526" type="line"/>
      <point x="338" y="467"/>
      <point x="318" y="434"/>
      <point x="278" y="434" type="curve" smooth="yes"/>
      <point x="257" y="434"/>
      <point x="234" y="435"/>
      <point x="208" y="446" type="curve"/>
      <point x="208" y="397" type="line"/>
      <point x="237" y="389"/>
      <point x="269" y="384"/>
      <point x="292" y="384" type="curve" smooth="yes"/>
      <point x="362" y="384"/>
      <point x="391" y="443"/>
      <point x="391" y="524" type="curve" smooth="yes"/>
      <point x="391" y="666" type="line"/>
      <point x="338" y="666" type="line"/>
    </contour>
  </outline>
</glyph>
<glyph name="uni1DD2" format="2">
  <unicode hex="1DD2"/>
  <anchor x="-475" y="1170" name="_top"/>
  <outline>
    <contour>
      <point x="-498" y="1446" type="curve" smooth="yes"/>
      <point x="-442" y="1446"/>
      <point x="-407" y="1461"/>
      <point x="-379" y="1484" type="curve"/>
      <point x="-401" y="1513" type="line"/>
      <point x="-421" y="1496"/>
      <point x="-450" y="1483"/>
      <point x="-495" y="1483" type="curve" smooth="yes"/>
      <point x="-599" y="1483"/>
      <point x="-652" y="1558"/>
      <point x="-652" y="1668" type="curve" smooth="yes"/>
      <point x="-652" y="1806"/>
      <point x="-573" y="1877"/>
      <point x="-479" y="1877" type="curve" smooth="yes"/>
      <point x="-364" y="1877"/>
      <point x="-298" y="1768"/>
      <point x="-298" y="1613" type="curve" smooth="yes"/>
      <point x="-298" y="1314"/>
      <point x="-436" y="1240"/>
      <point x="-565" y="1189" type="curve"/>
      <point x="-551" y="1150" type="line"/>
      <point x="-393" y="1215"/>
      <point x="-260" y="1308"/>
      <point x="-260" y="1611" type="curve" smooth="yes"/>
      <point x="-260" y="1791"/>
      <point x="-340" y="1914"/>
      <point x="-482" y="1914" type="curve" smooth="yes"/>
      <point x="-601" y="1914"/>
      <point x="-690" y="1815"/>
      <point x="-690" y="1667" type="curve" smooth="yes"/>
      <point x="-690" y="1513"/>
      <point x="-603" y="1446"/>
    </contour>
  </outline>
</glyph>
<glyph name="uni1DE1" format="2">
  <unicode hex="1DE1"/>
  <anchor x="-460" y="1170" name="_top"/>
  <outline>
    <contour>
      <point x="-263" y="1231" type="line"/>
      <point x="-632" y="1798" type="line"/>
      <point x="-655" y="1769" type="line"/>
      <point x="-288" y="1203" type="line"/>
    </contour>
    <contour>
      <point x="-632" y="1798" type="line"/>
      <point x="-669" y="1798" type="line"/>
      <point x="-669" y="1203" type="line"/>
      <point x="-632" y="1203" type="line"/>
    </contour>
    <contour>
      <point x="-250" y="1798" type="line"/>
      <point x="-288" y="1798" type="line"/>
      <point x="-288" y="1203" type="line"/>
      <point x="-250" y="1203" type="line"/>
    </contour>
  </outline>
</glyph>
<glyph name="uni1DEF" format="2">
  <unicode hex="1DEF"/>
  <anchor x="-460" y="949" name="_top"/>
  <outline>
    <contour>
      <point x="-439" y="1203" type="line"/>
      <point x="-439" y="1847" type="line" smooth="yes"/>
      <point x="-439" y="1932"/>
      <point x="-413" y="1971"/>
      <point x="-353" y="1971" type="curve" smooth="yes"/>
      <point x="-334" y="1971"/>
      <point x="-318" y="1969"/>
      <point x="-302" y="1963" type="curve"/>
      <point x="-298" y="2002" type="line"/>
      <point x="-317" y="2008"/>
      <point x="-336" y="2010"/>
      <point x="-354" y="2010" type="curve" smooth="yes"/>
      <point x="-432" y="2010"/>
      <point x="-477" y="1952"/>
      <point x="-477" y="1847" type="curve" smooth="yes"/>
      <point x="-477" y="1203" type="line"/>
    </contour>
    <contour>
      <point x="-477" y="1760" type="line"/>
      <point x="-477" y="1117" type="line" smooth="yes"/>
      <point x="-477" y="1030"/>
      <point x="-506" y="992"/>
      <point x="-567" y="992" type="curve" smooth="yes"/>
      <point x="-586" y="992"/>
      <point x="-601" y="994"/>
      <point x="-617" y="1000" type="curve"/>
      <point x="-621" y="962" type="line"/>
      <point x="-603" y="955"/>
      <point x="-584" y="953"/>
      <point x="-565" y="953" type="curve" smooth="yes"/>
      <point x="-488" y="953"/>
      <point x="-439" y="1013"/>
      <point x="-439" y="1117" type="curve" smooth="yes"/>
      <point x="-439" y="1760" type="line"/>
    </contour>
  </outline>
</glyph>
<glyph name="quoteright" format="2">
  <advance width="314"/>
  <unicode hex="2019"/>
  <outline>
    <contour>
      <point x="211" y="1536" type="line"/>
      <point x="159" y="1536" type="line"/>
      <point x="159" y="1432" type="line" smooth="yes"/>
      <point x="159" y="1328"/>
      <point x="133" y="1262"/>
      <point x="82" y="1184" type="curve"/>
      <point x="119" y="1154" type="line"/>
      <point x="173" y="1221"/>
      <point x="211" y="1311"/>
      <point x="211" y="1434" type="curve" smooth="yes"/>
    </contour>
  </outline>
</glyph>
<glyph name="uni204A" format="2">
  <advance width="866"/>
  <unicode hex="204A"/>
  <outline>
    <contour>
      <point x="53" y="1030" type="line"/>
      <point x="625" y="1030" type="line"/>
      <point x="625" y="-416" type="line"/>
      <point x="679" y="-416" type="line"/>
      <point x="679" y="1082" type="line"/>
      <point x="53" y="1082" type="line"/>
    </contour>
  </outline>
</glyph>
<glyph name="uni2071" format="2">
  <advance width="326"/>
  <unicode hex="2071"/>
  <outline>
    <contour>
      <point x="191" y="1360" type="line"/>
      <point x="137" y="1360" type="line"/>
      <point x="137" y="558" type="line"/>
      <point x="191" y="558" type="line"/>
    </contour>
    <contour>
      <point x="121" y="1600" type="curve" smooth="yes"/>
      <point x="121" y="1575"/>
      <point x="139" y="1554"/>
      <point x="163" y="1554" type="curve" smooth="yes"/>
      <point x="187" y="1554"/>
      <point x="205" y="1575"/>
      <point x="205" y="1600" type="curve" smooth="yes"/>
      <point x="205" y="1628"/>
      <point x="187" y="1645"/>
      <point x="163" y="1645" type="curve" smooth="yes"/>
      <point x="139" y="1645"/>
      <point x="121" y="1628"/>
    </contour>
  </outline>
</glyph>
<glyph name="uni27E7" format="2">
  <advance width="726"/>
  <unicode hex="27E7"/>
  <outline>
    <contour>
      <point x="119" y="1613" type="line"/>
      <point x="310" y="1613" type="line"/>
      <point x="310" y="-261" type="line"/>
      <point x="119" y="-261" type="line"/>
      <point x="119" y="-312" type="line"/>
      <point x="364" y="-312" type="line"/>
      <point x="364" y="1664" type="line"/>
      <point x="119" y="1664" type="line"/>
    </contour>
    <contour>
      <point x="295" y="1613" type="line"/>
      <point x="487" y="1613" type="line"/>
      <point x="487" y="-261" type="line"/>
      <point x="295" y="-261" type="line"/>
      <point x="295" y="-312" type="line"/>
      <point x="540" y="-312" type="line"/>
      <point x="540" y="1664" type="line"/>
      <point x="295" y="1664" type="line"/>
    </contour>
  </outline>
</glyph>
<glyph name="uni2DE5" format="2">
  <unicode hex="2DE5"/>
  <anchor x="-460" y="1170" name="_top"/>
  <outline>
    <contour>
      <point x="-629" y="1607" type="curve"/>
      <point x="-589" y="1607" type="line"/>
      <point x="-591" y="1680"/>
      <point x="-533" y="1725"/>
      <point x="-460" y="1725" type="curve" smooth="yes"/>
      <point x="-368" y="1725"/>
      <point x="-329" y="1680"/>
      <point x="-329" y="1610" type="curve" smooth="yes"/>
      <point x="-329" y="1550"/>
      <point x="-357" y="1505"/>
      <point x="-460" y="1505" type="curve" smooth="yes"/>
      <point x="-525" y="1505" type="line"/>
      <point x="-525" y="1471" type="line"/>
      <point x="-458" y="1471" type="line" smooth="yes"/>
      <point x="-350" y="1471"/>
      <point x="-290" y="1530"/>
      <point x="-290" y="1610" type="curve" smooth="yes"/>
      <point x="-290" y="1710"/>
      <point x="-356" y="1764"/>
      <point x="-460" y="1764" type="curve" smooth="yes"/>
      <point x="-547" y="1764"/>
      <point x="-629" y="1704"/>
    </contour>
    <contour>
      <point x="-637" y="1354" type="line"/>
      <point x="-637" y="1243"/>
      <point x="-543" y="1192"/>
      <point x="-460" y="1192" type="curve" smooth="yes"/>
      <point x="-349" y="1192"/>
      <point x="-282" y="1248"/>
      <point x="-282" y="1349" type="curve" smooth="yes"/>
      <point x="-282" y="1441"/>
      <point x="-339" y="1504"/>
      <point x="-458" y="1504" type="curve" smooth="yes"/>
      <point x="-525" y="1504" type="line"/>
      <point x="-525" y="1469" type="line"/>
      <point x="-460" y="1469" type="line" smooth="yes"/>
      <point x="-360" y="1469"/>
      <point x="-322" y="1424"/>
      <point x="-322" y="1348" type="curve" smooth="yes"/>
      <point x="-322" y="1282"/>
      <point x="-360" y="1229"/>
      <point x="-460" y="1229" type="curve" smooth="yes"/>
      <point x="-540" y="1229"/>
      <point x="-599" y="1279"/>
      <point x="-599" y="1354" type="curve"/>
    </contour>
  </outline>
</glyph>
<glyph name="uni2DE8" format="2">
  <unicode hex="2DE8"/>
  <anchor x="-462" y="1170" name="_top"/>
  <outline>
    <contour>
      <point x="-460" y="1243" type="line"/>
      <point x="-669" y="1754" type="line"/>
      <point x="-709" y="1754" type="line"/>
      <point x="-476" y="1203" type="line"/>
      <point x="-442" y="1203" type="line"/>
      <point x="-211" y="1754" type="line"/>
      <point x="-253" y="1754" type="line"/>
    </contour>
    <contour>
      <point x="-679" y="1754" type="line"/>
      <point x="-718" y="1754" type="line"/>
      <point x="-718" y="1203" type="line"/>
      <point x="-679" y="1203" type="line"/>
    </contour>
    <contour>
      <point x="-244" y="1203" type="line"/>
      <point x="-205" y="1203" type="line"/>
      <point x="-205" y="1754" type="line"/>
      <point x="-244" y="1754" type="line"/>
    </contour>
  </outline>
</glyph>
<glyph name="uni2E02" format="2">
  <advance width="496"/>
  <unicode hex="2E02"/>
  <outline>
    <contour>
      <point x="373" y="1465" type="line"/>
      <point x="87" y="1130" type="line"/>
      <point x="121" y="1097" type="line"/>
      <point x="408" y="1430" type="line"/>
    </contour>
    <contour>
      <point x="136" y="1130" type="line"/>
      <point x="87" y="1130" type="line"/>
      <point x="87" y="651" type="line"/>
      <point x="136" y="651" type="line"/>
    </contour>
  </outline>
</glyph>
<glyph name="uni2E0F" format="2">
  <advance width="1217"/>
  <unicode hex="2E0F"/>
  <outline>
    <contour>
      <point x="1129" y="-207" type="line"/>
      <point x="87" y="-207" type="line"/>
      <point x="87" y="-255" type="line"/>
      <point x="1129" y="-255" type="line"/>
    </contour>
  </outline>
</glyph>
<glyph name="uni2E10" format="2">
  <advance width="1217"/>
  <unicode hex="2E10"/>
  <outline>
    <contour>
      <point x="1129" y="-207" type="line"/>
      <point x="87" y="-207" type="line"/>
      <point x="87" y="-255" type="line"/>
      <point x="1129" y="-255" type="line"/>
    </contour>
    <contour>
      <point x="415" y="-212" type="line"/>
      <point x="96" y="-423" type="line"/>
      <point x="122" y="-465" type="line"/>
      <point x="439" y="-250" type="line"/>
    </contour>
  </outline>
</glyph>
<glyph name="uni2E12" format="2">
  <advance width="402"/>
  <unicode hex="2E12"/>
  <outline>
    <contour>
      <point x="87" y="180" type="line"/>
      <point x="192" y="180"/>
      <point x="264" y="95"/>
      <point x="264" y="-38" type="curve" smooth="yes"/>
      <point x="264" y="-180"/>
      <point x="192" y="-247"/>
      <point x="87" y="-247" type="curve"/>
      <point x="87" y="-299" type="line"/>
      <point x="221" y="-299"/>
      <point x="314" y="-203"/>
      <point x="314" y="-38" type="curve" smooth="yes"/>
      <point x="314" y="132"/>
      <point x="221" y="230"/>
      <point x="87" y="230" type="curve"/>
    </contour>
  </outline>
</glyph>
<glyph name="uni2E16" format="2">
  <advance width="491"/>
  <unicode hex="2E16"/>
  <outline>
    <contour>
      <point x="87" y="172" type="line"/>
      <point x="150" y="172" type="line"/>
      <point x="398" y="541" type="line"/>
      <point x="398" y="554" type="line"/>
      <point x="338" y="555" type="line"/>
    </contour>
    <contour>
      <point x="87" y="940" type="line"/>
      <point x="338" y="546" type="line"/>
      <point x="398" y="547" type="line"/>
      <point x="398" y="560" type="line"/>
      <point x="150" y="940" type="line"/>
    </contour>
    <contour>
      <point x="291" y="160" type="curve" smooth="yes"/>
      <point x="291" y="130"/>
      <point x="310" y="108"/>
      <point x="340" y="108" type="curve" smooth="yes"/>
      <point x="367" y="108"/>
      <point x="389" y="130"/>
      <point x="389" y="160" type="curve" smooth="yes"/>
      <point x="389" y="191"/>
      <point x="367" y="215"/>
      <point x="340" y="215" type="curve" smooth="yes"/>
      <point x="310" y="215"/>
      <point x="291" y="191"/>
    </contour>
    <contour>
      <point x="291" y="940" type="curve" smooth="yes"/>
      <point x="291" y="912"/>
      <point x="310" y="886"/>
      <point x="340" y="886" type="curve" smooth="yes"/>
      <point x="367" y="886"/>
      <point x="389" y="912"/>
      <point x="389" y="940" type="curve" smooth="yes"/>
      <point x="389" y="970"/>
      <point x="367" y="996"/>
      <point x="340" y="996" type="curve" smooth="yes"/>
      <point x="310" y="996"/>
      <point x="291" y="970"/>
    </contour>
  </outline>
</glyph>
<glyph name="uni2E1D" format="2">
  <advance width="713"/>
  <unicode hex="2E1D"/>
  <outline>
    <contour>
      <point x="588" y="671" type="line"/>
      <point x="91" y="-268" type="line"/>
      <point x="49" y="-238" type="line"/>
      <point x="546" y="701" type="line"/>
    </contour>
  </outline>
</glyph>
<glyph name="uniA65E" format="2">
  <advance width="1083"/>
  <unicode hex="A65E"/>
  <outline>
    <contour>
      <point x="1034" y="0" type="line"/>
      <point x="979" y="0" type="line"/>
      <point x="563" y="1314" type="line"/>
      <point x="525" y="1456" type="line"/>
      <point x="572" y="1456" type="line"/>
    </contour>
    <contour>
      <point x="91" y="-19" type="curve"/>
      <point x="53" y="15" type="line"/>
      <point x="359" y="386"/>
      <point x="478" y="880"/>
      <point x="512" y="1456" type="curve"/>
      <point x="560" y="1456" type="line"/>
      <point x="541" y="1277" type="line"/>
      <point x="507" y="766"/>
      <point x="378" y="306"/>
    </contour>
    <contour>
      <point x="586" y="-416" type="line"/>
      <point x="534" y="-416" type="line"/>
      <point x="534" y="1396" type="line"/>
      <point x="586" y="1396" type="line"/>
    </contour>
  </outline>
</glyph>
<glyph name="uniA682" format="2">
  <advance width="1064"/>
  <unicode hex="A682"/>
  <outline>
    <contour>
      <point x="923" y="2" type="curve" smooth="yes"/>
      <point x="923" y="-261"/>
      <point x="769" y="-387"/>
      <point x="557" y="-387" type="curve" smooth="yes"/>
      <point x="379" y="-387"/>
      <point x="152" y="-300"/>
      <point x="152" y="-7" type="curve"/>
      <point x="99" y="-7" type="line"/>
      <point x="99" y="-335"/>
      <point x="344" y="-437"/>
      <point x="557" y="-437" type="curve" smooth="yes"/>
      <point x="788" y="-437"/>
      <point x="976" y="-291"/>
      <point x="976" y="4" type="curve" smooth="yes"/>
      <point x="976" y="309"/>
      <point x="808" y="467"/>
      <point x="562" y="569" type="curve" smooth="yes"/>
      <point x="282" y="692"/>
      <point x="192" y="858"/>
      <point x="192" y="1049" type="curve" smooth="yes"/>
      <point x="192" y="1276"/>
      <point x="319" y="1426"/>
      <point x="550" y="1426" type="curve" smooth="yes"/>
      <point x="768" y="1426"/>
      <point x="910" y="1263"/>
      <point x="910" y="1046" type="curve"/>
      <point x="963" y="1046" type="line"/>
      <point x="963" y="1305"/>
      <point x="793" y="1476"/>
      <point x="550" y="1476" type="curve" smooth="yes"/>
      <point x="314" y="1476"/>
      <point x="139" y="1332"/>
      <point x="139" y="1049" type="curve" smooth="yes"/>
      <point x="139" y="781"/>
      <point x="304" y="624"/>
      <point x="547" y="519" type="curve" smooth="yes"/>
      <point x="823" y="400"/>
      <point x="923" y="229"/>
    </contour>
  </outline>
</glyph>
<glyph name="uniA689" format="2">
  <advance width="1161"/>
  <unicode hex="A689"/>
  <outline>
    <contour>
      <point x="324" y="1082" type="line"/>
      <point x="307" y="706" type="line" smooth="yes"/>
      <point x="288" y="279"/>
      <point x="186" y="135"/>
      <point x="129" y="51" type="curve"/>
      <point x="111" y="50" type="line"/>
      <point x="109" y="0" type="line"/>
      <point x="146" y="0" type="line"/>
      <point x="235" y="100"/>
      <point x="341" y="286"/>
      <point x="360" y="706" type="curve" smooth="yes"/>
      <point x="377" y="1082" type="line"/>
    </contour>
    <contour>
      <point x="352" y="1082" type="line"/>
      <point x="352" y="1031" type="line"/>
      <point x="772" y="1031" type="line"/>
      <point x="772" y="0" type="line"/>
      <point x="823" y="0" type="line"/>
      <point x="823" y="1082" type="line"/>
    </contour>
    <contour>
      <point x="69" y="51" type="line"/>
      <point x="68" y="-317" type="line"/>
      <point x="113" y="-317" type="line"/>
      <point x="113" y="0" type="line"/>
      <point x="805" y="0" type="line"/>
      <point x="805" y="51" type="line"/>
    </contour>
    <contour>
      <point x="940" y="-205" type="line"/>
      <point x="1034" y="-205"/>
      <point x="1085" y="-149"/>
      <point x="1085" y="-79" type="curve" smooth="yes"/>
      <point x="1085" y="5"/>
      <point x="1037" y="51"/>
      <point x="939" y="51" type="curve" smooth="yes"/>
      <point x="816" y="51" type="line"/>
      <point x="823" y="0" type="line"/>
      <point x="854" y="0"/>
      <point x="891" y="-1"/>
      <point x="939" y="-1" type="curve" smooth="yes"/>
      <point x="1017" y="-1"/>
      <point x="1043" y="-27"/>
      <point x="1043" y="-79" type="curve" smooth="yes"/>
      <point x="1043" y="-120"/>
      <point x="1027" y="-164"/>
      <point x="938" y="-164" type="curve" smooth="yes"/>
      <point x="883" y="-164" type="line"/>
      <point x="883" y="-205" type="line"/>
    </contour>
    <contour>
      <point x="883" y="-165" type="line"/>
      <point x="883" y="-205" type="line"/>
      <point x="938" y="-205" type="line" smooth="yes"/>
      <point x="1024" y="-205"/>
      <point x="1049" y="-248"/>
      <point x="1049" y="-303" type="curve" smooth="yes"/>
      <point x="1049" y="-350"/>
      <point x="1023" y="-395"/>
      <point x="939" y="-395" type="curve" smooth="yes"/>
      <point x="870" y="-395"/>
      <point x="831" y="-363"/>
      <point x="825" y="-298" type="curve"/>
      <point x="785" y="-298" type="line"/>
      <point x="785" y="-393"/>
      <point x="866" y="-437"/>
      <point x="939" y="-437" type="curve" smooth="yes"/>
      <point x="1035" y="-437"/>
      <point x="1091" y="-386"/>
      <point x="1091" y="-303" type="curve" smooth="yes"/>
      <point x="1091" y="-225"/>
      <point x="1044" y="-165"/>
      <point x="940" y="-165" type="curve" smooth="yes"/>
    </contour>
  </outline>
</glyph>
<glyph name="uniA711" format="2">
  <advance width="476"/>
  <unicode hex="A711"/>
  <outline>
    <contour>
      <point x="238" y="1456" type="line"/>
      <point x="188" y="1456" type="line"/>
      <point x="188" y="-270" type="line"/>
      <point x="238" y="-270" type="line"/>
    </contour>
    <contour>
      <point x="304" y="-227" type="curve" smooth="yes"/>
      <point x="304" y="-258"/>
      <point x="325" y="-283"/>
      <point x="355" y="-283" type="curve" smooth="yes"/>
      <point x="382" y="-283"/>
      <point x="404" y="-258"/>
      <point x="404" y="-227" type="curve" smooth="yes"/>
      <point x="404" y="-198"/>
      <point x="382" y="-173"/>
      <point x="355" y="-173" type="curve" smooth="yes"/>
      <point x="325" y="-173"/>
      <point x="304" y="-198"/>
    </contour>
  </outline>
</glyph>
<glyph name="uniA724" format="2">
  <advance width="558"/>
  <unicode hex="A724"/>
  <outline>
    <contour>
      <point x="471" y="1456" type="line"/>
      <point x="407" y="1456" type="line" smooth="yes"/>
      <point x="184" y="1456"/>
      <point x="87" y="1344"/>
      <point x="87" y="1193" type="curve" smooth="yes"/>
      <point x="87" y="1014"/>
      <point x="223" y="835"/>
      <point x="421" y="652" type="curve"/>
      <point x="451" y="689" type="line"/>
      <point x="286" y="840"/>
      <point x="138" y="1016"/>
      <point x="138" y="1193" type="curve" smooth="yes"/>
      <point x="138" y="1295"/>
      <point x="193" y="1406"/>
      <point x="407" y="1406" type="curve" smooth="yes"/>
      <point x="472" y="1406" type="line"/>
    </contour>
  </outline>
</glyph>
<glyph name="uniA734" format="2">
  <advance width="1902"/>
  <unicode hex="A734"/>
  <outline>
    <contour>
      <point x="852" y="486" type="line"/>
      <point x="229" y="486" type="line"/>
      <point x="229" y="436" type="line"/>
      <point x="852" y="436" type="line"/>
    </contour>
    <contour>
      <point x="548" y="1413" type="line"/>
      <point x="558" y="1456" type="line"/>
      <point x="510" y="1456" type="line"/>
      <point x="46" y="0" type="line"/>
      <point x="103" y="0" type="line"/>
    </contour>
    <contour>
      <point x="887" y="460" type="line"/>
      <point x="570" y="1456" type="line"/>
      <point x="525" y="1456" type="line"/>
      <point x="533" y="1413" type="line"/>
      <point x="831" y="461" type="line"/>
    </contour>
    <contour>
      <point x="1763" y="839" type="line"/>
      <point x="1763" y="1217"/>
      <point x="1578" y="1476"/>
      <point x="1294" y="1476" type="curve" smooth="yes"/>
      <point x="1010" y="1476"/>
      <point x="826" y="1217"/>
      <point x="826" y="839" type="curve"/>
      <point x="826" y="617" type="line"/>
      <point x="826" y="238"/>
      <point x="1010" y="-20"/>
      <point x="1294" y="-20" type="curve" smooth="yes"/>
      <point x="1581" y="-20"/>
      <point x="1763" y="238"/>
      <point x="1763" y="617" type="curve"/>
    </contour>
    <contour>
      <point x="1710" y="617" type="line"/>
      <point x="1710" y="273"/>
      <point x="1559" y="31"/>
      <point x="1294" y="31" type="curve" smooth="yes"/>
      <point x="1033" y="31"/>
      <point x="880" y="273"/>
      <point x="880" y="617" type="curve" smooth="yes"/>
      <point x="880" y="841" type="line" smooth="yes"/>
      <point x="880" y="1182"/>
      <point x="1031" y="1425"/>
      <point x="1294" y="1425" type="curve" smooth="yes"/>
      <point x="1557" y="1425"/>
      <point x="1710" y="1182"/>
      <point x="1710" y="841" type="curve"/>
    </contour>
  </outline>
</glyph>
<glyph name="uniA746" format="2">
  <advance width="1018"/>
  <unicode hex="A746"/>
  <outline>
    <contour>
      <point x="953" y="51" type="line"/>
      <point x="293" y="51" type="line"/>
      <point x="293" y="0" type="line"/>
      <point x="953" y="0" type="line"/>
    </contour>
    <contour>
      <point x="271" y="730" type="line"/>
      <point x="271" y="0" type="line"/>
      <point x="324" y="0" type="line"/>
      <point x="324" y="730" type="line"/>
    </contour>
    <contour>
      <point x="324" y="730" type="line"/>
      <point x="324" y="779" type="line"/>
      <point x="242" y="779" type="line"/>
      <point x="242" y="1456" type="line"/>
      <point x="188" y="1456" type="line"/>
      <point x="188" y="730" type="line"/>
    </contour>
  </outline>
</glyph>
<glyph name="uniA768" format="2">
  <advance width="905"/>
  <unicode hex="A768"/>
  <outline>
    <contour>
      <point x="240" y="1456" type="line"/>
      <point x="188" y="1456" type="line"/>
      <point x="188" y="-416" type="line"/>
      <point x="240" y="-416" type="line"/>
    </contour>
    <contour>
      <point x="230" y="87" type="line"/>
      <point x="191" y="-30" type="line"/>
      <point x="240" y="-30" type="line"/>
      <point x="867" y="1456" type="line"/>
      <point x="814" y="1456" type="line"/>
    </contour>
  </outline>
</glyph>
<glyph name="uniA778" format="2">
  <advance width="935"/>
  <unicode hex="A778"/>
  <outline>
    <contour>
      <point x="32" y="0" type="line"/>
      <point x="496" y="0" type="line" smooth="yes"/>
      <point x="725" y="0"/>
      <point x="866" y="123"/>
      <point x="866" y="349" type="curve" smooth="yes"/>
      <point x="866" y="515"/>
      <point x="767" y="649"/>
      <point x="646" y="762" type="curve" smooth="yes"/>
      <point x="394" y="999" type="line" smooth="yes"/>
      <point x="322" y="1069"/>
      <point x="295" y="1143"/>
      <point x="295" y="1217" type="curve" smooth="yes"/>
      <point x="295" y="1340"/>
      <point x="357" y="1426"/>
      <point x="481" y="1426" type="curve" smooth="yes"/>
      <point x="620" y="1426"/>
      <point x="689" y="1310"/>
      <point x="689" y="1169" type="curve" smooth="yes"/>
      <point x="689" y="1067"/>
      <point x="651" y="951"/>
      <point x="560" y="826" type="curve" smooth="yes"/>
      <point x="82" y="178" type="line"/>
      <point x="147" y="178" type="line"/>
      <point x="550" y="728" type="line" smooth="yes"/>
      <point x="675" y="894"/>
      <point x="742" y="1018"/>
      <point x="742" y="1167" type="curve" smooth="yes"/>
      <point x="742" y="1370"/>
      <point x="639" y="1478"/>
      <point x="481" y="1478" type="curve" smooth="yes"/>
      <point x="325" y="1478"/>
      <point x="243" y="1371"/>
      <point x="243" y="1217" type="curve" smooth="yes"/>
      <point x="243" y="1094"/>
      <point x="302" y="1024"/>
      <point x="369" y="961" type="curve" smooth="yes"/>
      <point x="619" y="726" type="line" smooth="yes"/>
      <point x="786" y="552"/>
      <point x="813" y="442"/>
      <point x="813" y="349" type="curve" smooth="yes"/>
      <point x="813" y="185"/>
      <point x="713" y="51"/>
      <point x="496" y="51" type="curve" smooth="yes"/>
      <point x="32" y="51" type="line"/>
    </contour>
  </outline>
</glyph>
<glyph name="uniAB43" format="2">
  <advance width="1491"/>
  <unicode hex="AB43"/>
  <outline>
    <contour>
      <point x="498" y="1051" type="curve"/>
      <point x="498" y="1102" type="line"/>
      <point x="259" y="1102"/>
      <point x="97" y="880"/>
      <point x="97" y="562" type="curve" smooth="yes"/>
      <point x="97" y="520" type="line" smooth="yes"/>
      <point x="97" y="204"/>
      <point x="259" y="-20"/>
      <point x="499" y="-20" type="curve" smooth="yes"/>
      <point x="607" y="-20"/>
      <point x="698" y="24"/>
      <point x="766" y="102" type="curve"/>
      <point x="727" y="139" type="line"/>
      <point x="669" y="72"/>
      <point x="592" y="31"/>
      <point x="499" y="31" type="curve" smooth="yes"/>
      <point x="276" y="31"/>
      <point x="148" y="259"/>
      <point x="148" y="520" type="curve" smooth="yes"/>
      <point x="148" y="562" type="line" smooth="yes"/>
      <point x="148" y="817"/>
      <point x="276" y="1051"/>
    </contour>
    <contour>
      <point x="592" y="520" type="line"/>
      <point x="592" y="204"/>
      <point x="754" y="-20"/>
      <point x="996" y="-20" type="curve" smooth="yes"/>
      <point x="1235" y="-20"/>
      <point x="1397" y="204"/>
      <point x="1397" y="520" type="curve"/>
      <point x="1397" y="562" type="line"/>
      <point x="1397" y="880"/>
      <point x="1235" y="1102"/>
      <point x="994" y="1102" type="curve" smooth="yes"/>
      <point x="754" y="1102"/>
      <point x="592" y="880"/>
      <point x="592" y="562" type="curve"/>
    </contour>
    <contour>
      <point x="644" y="562" type="line"/>
      <point x="644" y="817"/>
      <point x="772" y="1051"/>
      <point x="994" y="1051" type="curve" smooth="yes"/>
      <point x="1216" y="1051"/>
      <point x="1345" y="817"/>
      <point x="1345" y="562" type="curve"/>
      <point x="1345" y="520" type="line"/>
      <point x="1345" y="259"/>
      <point x="1216" y="31"/>
      <point x="996" y="31" type="curve" smooth="yes"/>
      <point x="772" y="31"/>
      <point x="644" y="259"/>
      <point x="644" y="520" type="curve"/>
    </contour>
  </outline>
</glyph>
<glyph name="Bhook" format="2">
  <advance width="1232"/>
  <outline>
    <contour>
      <point x="365" y="1406" type="line" name="hr00"/>
      <point x="365" y="1456" type="line"/>
      <point x="332" y="1456" type="line" smooth="yes"/>
      <point x="142" y="1456"/>
      <point x="36" y="1351"/>
      <point x="36" y="1171" type="curve" smooth="yes"/>
      <point x="36" y="1129"/>
      <point x="42" y="1098"/>
      <point x="54" y="1059" type="curve"/>
      <point x="102" y="1073" type="line"/>
      <point x="95" y="1093"/>
      <point x="87" y="1135"/>
      <point x="87" y="1173" type="curve" smooth="yes"/>
      <point x="87" y="1322"/>
      <point x="175" y="1406"/>
      <point x="332" y="1406" type="curve" smooth="yes"/>
    </contour>
    <contour>
      <point x="745" y="721" type="line"/>
      <point x="816" y="749" type="line"/>
      <point x="977" y="768"/>
      <point x="1065" y="903"/>
      <point x="1065" y="1083" type="curve"/>
      <point x="1065" y="1341"/>
      <point x="911" y="1456"/>
      <point x="660" y="1456" type="curve"/>
      <point x="331" y="1456" type="line"/>
      <point x="331" y="0" type="line"/>
      <point x="383" y="0" type="line"/>
      <point x="383" y="1406" type="line"/>
      <point x="660" y="1406" type="line"/>
      <point x="892" y="1406"/>
      <point x="1012" y="1297"/>
      <point x="1012" y="1087" type="curve"/>
      <point x="1012" y="872"/>
      <point x="897" y="771"/>
      <point x="678" y="771" type="curve"/>
      <point x="362" y="771" type="line"/>
      <point x="366" y="721" type="line"/>
    </contour>
    <contour>
      <point x="736" y="0" type="line"/>
      <point x="963" y="0"/>
      <point x="1120" y="141"/>
      <point x="1120" y="401" type="curve" smooth="yes"/>
      <point x="1120" y="579"/>
      <point x="1000" y="732"/>
      <point x="843" y="753" type="curve"/>
      <point x="839" y="771" type="line"/>
      <point x="544" y="771" type="line"/>
      <point x="542" y="721" type="line"/>
      <point x="745" y="721" type="line" smooth="yes"/>
      <point x="962" y="721"/>
      <point x="1067" y="565"/>
      <point x="1067" y="399" type="curve" smooth="yes"/>
      <point x="1067" y="181"/>
      <point x="942" y="51"/>
      <point x="736" y="51" type="curve" smooth="yes"/>
      <point x="379" y="51" type="line"/>
      <point x="359" y="0" type="line"/>
    </contour>
  </outline>
</glyph>
<glyph name="C.ss06" format="2">
  <advance width="1175"/>
  <outline>
    <contour>
      <point x="1019" y="444" type="line"/>
      <point x="984" y="173"/>
      <point x="857" y="30"/>
      <point x="630" y="30" type="curve" smooth="yes"/>
      <point x="362" y="30"/>
      <point x="181" y="321"/>
      <point x="181" y="699" type="curve" smooth="yes"/>
      <point x="181" y="758" type="line" smooth="yes"/>
      <point x="181" y="1135"/>
      <point x="361" y="1427"/>
      <point x="629" y="1427" type="curve" smooth="yes"/>
      <point x="859" y="1427"/>
      <point x="985" y="1267"/>
      <point x="1019" y="1013" type="curve"/>
      <point x="1071" y="1013" type="line"/>
      <point x="1038" y="1311"/>
      <point x="877" y="1477"/>
      <point x="629" y="1477" type="curve" smooth="yes"/>
      <point x="326" y="1477"/>
      <point x="128" y="1161"/>
      <point x="128" y="756" type="curve"/>
      <point x="128" y="699" type="line"/>
      <point x="128" y="295"/>
      <point x="328" y="-21"/>
      <point x="630" y="-21" type="curve" smooth="yes"/>
      <point x="878" y="-21"/>
      <point x="1039" y="143"/>
      <point x="1072" y="444" type="curve"/>
    </contour>
  </outline>
</glyph>
<glyph name="G.smcp" format="2">
  <advance width="1062"/>
  <anchor x="529" y="1320" name="top"/>
  <anchor x="546" y="1" name="bottom"/>
  <anchor x="1043" y="1600" name="top_dd"/>
  <anchor x="1043" y="-407" name="bottom_dd"/>
  <anchor x="1043" y="1320" name="top0315"/>
  <anchor x="529" y="1320" name="parent_top"/>
  <outline>
    <contour>
      <point x="914" y="532" type="line"/>
      <point x="547" y="532" type="line"/>
      <point x="547" y="482" type="line"/>
      <point x="864" y="482" type="line"/>
      <point x="864" y="149" type="line"/>
      <point x="832" y="104"/>
      <point x="722" y="34"/>
      <point x="550" y="34" type="curve" smooth="yes"/>
      <point x="330" y="34"/>
      <point x="188" y="225"/>
      <point x="188" y="501" type="curve" smooth="yes"/>
      <point x="188" y="682" type="line" smooth="yes"/>
      <point x="188" y="944"/>
      <point x="325" y="1130"/>
      <point x="538" y="1130" type="curve" smooth="yes"/>
      <point x="752" y="1130"/>
      <point x="841" y="996"/>
      <point x="863" y="847" type="curve"/>
      <point x="914" y="847" type="line"/>
      <point x="893" y="1036"/>
      <point x="769" y="1181"/>
      <point x="537" y="1181" type="curve" smooth="yes"/>
      <point x="300" y="1181"/>
      <point x="138" y="980"/>
      <point x="138" y="680" type="curve" smooth="yes"/>
      <point x="138" y="501" type="line" smooth="yes"/>
      <point x="138" y="191"/>
      <point x="306" y="-16"/>
      <point x="551" y="-16" type="curve" smooth="yes"/>
      <point x="762" y="-16"/>
      <point x="881" y="74"/>
      <point x="914" y="129" type="curve"/>
    </contour>
  </outline>
</glyph>
<glyph name="Koppa" format="2">
  <advance width="1175"/>
  <outline>
    <contour>
      <point x="958" y="1087" type="line"/>
      <point x="211" y="298" type="line"/>
      <point x="205" y="301" type="line"/>
      <point x="231" y="381" type="line"/>
      <point x="965" y="1156" type="line"/>
      <point x="972" y="1152" type="line"/>
    </contour>
    <contour>
      <point x="205" y="301" type="line"/>
      <point x="271" y="1110" type="line" smooth="yes"/>
      <point x="273" y="1134"/>
      <point x="274" y="1163"/>
      <point x="274" y="1184" type="curve" smooth="yes"/>
      <point x="274" y="1336"/>
      <point x="231" y="1426"/>
      <point x="112" y="1426" type="curve" smooth="yes"/>
      <point x="88" y="1426"/>
      <point x="65" y="1421"/>
      <point x="50" y="1416" type="curve"/>
      <point x="45" y="1466" type="line"/>
      <point x="69" y="1473"/>
      <point x="99" y="1475"/>
      <point x="115" y="1475" type="curve" smooth="yes"/>
      <point x="264" y="1475"/>
      <point x="326" y="1370"/>
      <point x="326" y="1190" type="curve" smooth="yes"/>
      <point x="326" y="1162"/>
      <point x="325" y="1135"/>
      <point x="324" y="1104" type="curve" smooth="yes"/>
      <point x="262" y="352" type="line"/>
    </contour>
    <contour>
      <point x="972" y="1152" type="line"/>
      <point x="906" y="346" type="line" smooth="yes"/>
      <point x="901" y="319"/>
      <point x="900" y="296"/>
      <point x="900" y="271" type="curve" smooth="yes"/>
      <point x="900" y="120"/>
      <point x="947" y="30"/>
      <point x="1061" y="30" type="curve" smooth="yes"/>
      <point x="1084" y="30"/>
      <point x="1109" y="36"/>
      <point x="1123" y="40" type="curve"/>
      <point x="1129" y="-8" type="line"/>
      <point x="1106" y="-17"/>
      <point x="1075" y="-19"/>
      <point x="1059" y="-19" type="curve" smooth="yes"/>
      <point x="910" y="-19"/>
      <point x="847" y="84"/>
      <point x="847" y="269" type="curve" smooth="yes"/>
      <point x="847" y="295"/>
      <point x="849" y="320"/>
      <point x="852" y="349" type="curve" smooth="yes"/>
      <point x="915" y="1117" type="line"/>
    </contour>
  </outline>
</glyph>
<glyph name="Yhook" format="2">
  <advance width="1081"/>
  <outline>
    <contour>
      <point x="554" y="650" type="line"/>
      <point x="515" y="553" type="line"/>
      <point x="561" y="553" type="line"/>
      <point x="886" y="1195" type="line" smooth="yes"/>
      <point x="934" y="1283"/>
      <point x="990" y="1423"/>
      <point x="1087" y="1423" type="curve" smooth="yes"/>
      <point x="1153" y="1423"/>
      <point x="1200" y="1369"/>
      <point x="1232" y="1326" type="curve"/>
      <point x="1267" y="1361" type="line"/>
      <point x="1226" y="1418"/>
      <point x="1158" y="1476"/>
      <point x="1086" y="1476" type="curve" smooth="yes"/>
      <point x="960" y="1476"/>
      <point x="895" y="1318"/>
      <point x="839" y="1216" type="curve" smooth="yes"/>
    </contour>
    <contour>
      <point x="113" y="1456" type="line"/>
      <point x="46" y="1456" type="line"/>
      <point x="512" y="553" type="line"/>
      <point x="558" y="553" type="line"/>
      <point x="519" y="649" type="line"/>
    </contour>
    <contour>
      <point x="562" y="575" type="line"/>
      <point x="509" y="575" type="line"/>
      <point x="509" y="0" type="line"/>
      <point x="562" y="0" type="line"/>
    </contour>
  </outline>
</glyph>
<glyph name="commaturnsupnosp" format="2">
  <anchor x="-460" y="1154" name="_top"/>
  <anchor x="-460" y="1684" name="top"/>
  <anchor x="-422" y="1355" name="parent_top"/>
  <outline>
    <contour>
      <point x="-486" y="1132" type="line"/>
      <point x="-435" y="1132" type="line"/>
      <point x="-435" y="1301" type="line" smooth="yes"/>
      <point x="-435" y="1404"/>
      <point x="-410" y="1470"/>
      <point x="-358" y="1548" type="curve"/>
      <point x="-394" y="1578" type="line"/>
      <point x="-450" y="1513"/>
      <point x="-486" y="1421"/>
      <point x="-486" y="1300" type="curve" smooth="yes"/>
    </contour>
  </outline>
</glyph>
<glyph name="e.ss07" format="2">
  <advance width="917"/>
  <outline>
    <contour>
      <point x="499" y="-22" type="curve"/>
      <point x="642" y="-22"/>
      <point x="732" y="42"/>
      <point x="796" y="123" type="curve"/>
      <point x="769" y="164" type="line"/>
      <point x="686" y="67"/>
      <point x="603" y="30"/>
      <point x="498" y="30" type="curve" smooth="yes"/>
      <point x="298" y="30"/>
      <point x="145" y="240"/>
      <point x="145" y="499" type="curve" smooth="yes"/>
      <point x="145" y="564" type="line" smooth="yes"/>
      <point x="145" y="833"/>
      <point x="280" y="1051"/>
      <point x="479" y="1051" type="curve"/>
      <point x="661" y="1051"/>
      <point x="777" y="883"/>
      <point x="777" y="664" type="curve"/>
      <point x="777" y="631" type="line"/>
      <point x="127" y="631" type="line"/>
      <point x="127" y="580" type="line"/>
      <point x="829" y="580" type="line"/>
      <point x="829" y="663" type="line" smooth="yes"/>
      <point x="829" y="936"/>
      <point x="687" y="1102"/>
      <point x="479" y="1102" type="curve" smooth="yes"/>
      <point x="267" y="1102"/>
      <point x="93" y="879"/>
      <point x="93" y="564" type="curve" smooth="yes"/>
      <point x="93" y="499" type="line" smooth="yes"/>
      <point x="93" y="198"/>
      <point x="273" y="-22"/>
    </contour>
  </outline>
</glyph>
<glyph name="eight.smcp" format="2">
  <advance width="896"/>
  <outline>
    <contour>
      <point x="804" y="305" type="curve" smooth="yes"/>
      <point x="804" y="487"/>
      <point x="647" y="612"/>
      <point x="449" y="612" type="curve" smooth="yes"/>
      <point x="248" y="612"/>
      <point x="93" y="487"/>
      <point x="93" y="305" type="curve" smooth="yes"/>
      <point x="93" y="91"/>
      <point x="248" y="-16"/>
      <point x="450" y="-16" type="curve" smooth="yes"/>
      <point x="646" y="-16"/>
      <point x="804" y="91"/>
    </contour>
    <contour>
      <point x="749" y="301" type="curve" smooth="yes"/>
      <point x="749" y="130"/>
      <point x="617" y="34"/>
      <point x="450" y="34" type="curve" smooth="yes"/>
      <point x="277" y="34"/>
      <point x="145" y="130"/>
      <point x="145" y="301" type="curve" smooth="yes"/>
      <point x="145" y="465"/>
      <point x="277" y="570"/>
      <point x="449" y="570" type="curve" smooth="yes"/>
      <point x="617" y="570"/>
      <point x="749" y="465"/>
    </contour>
    <contour>
      <point x="772" y="868" type="curve" smooth="yes"/>
      <point x="772" y="1072"/>
      <point x="629" y="1181"/>
      <point x="449" y="1181" type="curve" smooth="yes"/>
      <point x="265" y="1181"/>
      <point x="125" y="1072"/>
      <point x="125" y="868" type="curve" smooth="yes"/>
      <point x="125" y="695"/>
      <point x="265" y="577"/>
      <point x="450" y="577" type="curve" smooth="yes"/>
      <point x="630" y="577"/>
      <point x="772" y="695"/>
    </contour>
    <contour>
      <point x="718" y="871" type="curve" smooth="yes"/>
      <point x="718" y="717"/>
      <point x="600" y="621"/>
      <point x="450" y="621" type="curve" smooth="yes"/>
      <point x="293" y="621"/>
      <point x="177" y="717"/>
      <point x="177" y="871" type="curve" smooth="yes"/>
      <point x="177" y="1033"/>
      <point x="292" y="1130"/>
      <point x="449" y="1130" type="curve" smooth="yes"/>
      <point x="600" y="1130"/>
      <point x="718" y="1021"/>
    </contour>
  </outline>
</glyph>
<glyph name="gravesubnosp" format="2">
  <anchor x="-476" y="-371" name="bottom"/>
  <anchor x="-476" y="0" name="_bottom"/>
  <outline>
    <contour>
      <point x="-481" y="-84" type="line"/>
      <point x="-554" y="-84" type="line"/>
      <point x="-355" y="-349" type="line"/>
      <point x="-291" y="-349" type="line"/>
    </contour>
  </outline>
</glyph>
<glyph name="rrthook_uni1ABE" format="2">
  <advance width="763"/>
  <outline>
    <contour>
      <point x="261" y="65" type="line"/>
      <point x="261" y="-89" type="line" smooth="yes"/>
      <point x="261" y="-313"/>
      <point x="319" y="-437"/>
      <point x="471" y="-437" type="curve" smooth="yes"/>
      <point x="504" y="-437"/>
      <point x="533" y="-430"/>
      <point x="564" y="-417" type="curve"/>
      <point x="555" y="-367" type="line"/>
      <point x="536" y="-375"/>
      <point x="503" y="-386"/>
      <point x="473" y="-386" type="curve" smooth="yes"/>
      <point x="348" y="-386"/>
      <point x="312" y="-276"/>
      <point x="312" y="-89" type="curve" smooth="yes"/>
      <point x="312" y="65" type="line"/>
    </contour>
    <contour>
      <point x="312" y="893" type="line"/>
      <point x="312" y="1082" type="line"/>
      <point x="261" y="1082" type="line"/>
      <point x="261" y="0" type="line"/>
      <point x="312" y="0" type="line"/>
    </contour>
    <contour>
      <point x="670" y="1093" type="line"/>
      <point x="657" y="1099"/>
      <point x="635" y="1102"/>
      <point x="605" y="1102" type="curve"/>
      <point x="379" y="1102"/>
      <point x="270" y="879"/>
      <point x="270" y="576" type="curve"/>
      <point x="302" y="578" type="line"/>
      <point x="302" y="837"/>
      <point x="402" y="1053"/>
      <point x="606" y="1053" type="curve"/>
      <point x="628" y="1053"/>
      <point x="648" y="1051"/>
      <point x="667" y="1046" type="curve"/>
    </contour>
    <contour>
      <point x="173" y="-522" type="curve"/>
      <point x="176" y="-490" type="line"/>
      <point x="112" y="-464"/>
      <point x="59" y="-395"/>
      <point x="59" y="-309" type="curve" smooth="yes"/>
      <point x="59" y="-224"/>
      <point x="106" y="-155"/>
      <point x="176" y="-126" type="curve"/>
      <point x="173" y="-97" type="line"/>
      <point x="89" y="-128"/>
      <point x="23" y="-213"/>
      <point x="23" y="-309" type="curve" smooth="yes"/>
      <point x="23" y="-409"/>
      <point x="89" y="-491"/>
    </contour>
    <contour>
      <point x="592" y="-522" type="line"/>
      <point x="676" y="-491"/>
      <point x="740" y="-409"/>
      <point x="740" y="-309" type="curve" smooth="yes"/>
      <point x="740" y="-212"/>
      <point x="676" y="-128"/>
      <point x="592" y="-97" type="curve"/>
      <point x="587" y="-126" type="line"/>
      <point x="657" y="-155"/>
      <point x="703" y="-225"/>
      <point x="703" y="-309" type="curve" smooth="yes"/>
      <point x="703" y="-396"/>
      <point x="653" y="-464"/>
      <point x="587" y="-490" type="curve"/>
    </contour>
  </outline>
</glyph>
<glyph name="slashlongnosp" format="2">
  <outline>
    <contour>
      <point x="-111" y="1495" type="line"/>
      <point x="-167" y="1495" type="line"/>
      <point x="-1014" y="-74" type="line"/>
      <point x="-956" y="-74" type="line"/>
    </contour>
  </outline>
</glyph>
<glyph name="uni02E5_uni02E6_uni02E5" format="2">
  <advance width="977"/>
  <outline>
    <contour>
      <point x="789" y="0" type="line"/>
      <point x="789" y="1456" type="line"/>
      <point x="737" y="1456" type="line"/>
      <point x="471" y="1122" type="line"/>
      <point x="203" y="1456" type="line"/>
      <point x="170" y="1422" type="line"/>
      <point x="471" y="1051" type="line"/>
      <point x="737" y="1386" type="line"/>
      <point x="737" y="0" type="line"/>
    </contour>
  </outline>
</glyph>
<glyph name="uni02E5_uni02E6_uni02E7" format="2">
  <advance width="977"/>
  <outline>
    <contour>
      <point x="789" y="0" type="line"/>
      <point x="789" y="1456" type="line"/>
      <point x="737" y="1456" type="line"/>
      <point x="737" y="775" type="line"/>
      <point x="184" y="1456" type="line"/>
      <point x="149" y="1422" type="line"/>
      <point x="737" y="704" type="line"/>
      <point x="737" y="0" type="line"/>
    </contour>
  </outline>
</glyph>
<glyph name="uni02E7_uni02E6" format="2">
  <advance width="722"/>
  <outline>
    <contour>
      <point x="534" y="0" type="line"/>
      <point x="534" y="1456" type="line"/>
      <point x="483" y="1456" type="line"/>
      <point x="483" y="1104" type="line"/>
      <point x="180" y="733" type="line"/>
      <point x="217" y="701" type="line"/>
      <point x="483" y="1033" type="line"/>
      <point x="483" y="0" type="line"/>
    </contour>
  </outline>
</glyph>
<glyph name="uni02E9_uni02E8_uni02E9" format="2">
  <advance width="977"/>
  <outline>
    <contour>
      <point x="789" y="1456" type="line"/>
      <point x="737" y="1456" type="line"/>
      <point x="737" y="70" type="line"/>
      <point x="471" y="405" type="line"/>
      <point x="170" y="34" type="line"/>
      <point x="203" y="0" type="line"/>
      <point x="471" y="334" type="line"/>
      <point x="737" y="0" type="line"/>
      <point x="789" y="0" type="line"/>
    </contour>
  </outline>
</glyph>
<glyph name="uni02E9_uni02E9_uni02E5" format="2">
  <advance width="977"/>
  <outline>
    <contour>
      <point x="789" y="1456" type="line"/>
      <point x="737" y="1456" type="line"/>
      <point x="366" y="51" type="line"/>
      <point x="63" y="51" type="line"/>
      <point x="63" y="0" type="line"/>
      <point x="403" y="0" type="line"/>
      <point x="737" y="1280" type="line"/>
      <point x="737" y="0" type="line"/>
      <point x="789" y="0" type="line"/>
    </contour>
  </outline>
</glyph>
<glyph name="uni0416.smcp" format="2">
  <advance width="1373"/>
  <anchor x="686" y="1320" name="top"/>
  <anchor x="1354" y="1320" name="top0315"/>
  <anchor x="686" y="1320" name="parent_top"/>
  <outline>
    <contour>
      <point x="713" y="1165" type="line"/>
      <point x="660" y="1165" type="line"/>
      <point x="660" y="0" type="line"/>
      <point x="713" y="0" type="line"/>
    </contour>
    <contour>
      <point x="1267" y="1165" type="line"/>
      <point x="1200" y="1165" type="line"/>
      <point x="844" y="625" type="line"/>
      <point x="698" y="625" type="line"/>
      <point x="701" y="573" type="line"/>
      <point x="869" y="573" type="line"/>
    </contour>
    <contour>
      <point x="1249" y="0" type="line"/>
      <point x="1319" y="0" type="line"/>
      <point x="863" y="625" type="line"/>
      <point x="831" y="575" type="line"/>
    </contour>
    <contour>
      <point x="502" y="573" type="line"/>
      <point x="672" y="573" type="line"/>
      <point x="675" y="625" type="line"/>
      <point x="530" y="625" type="line"/>
      <point x="177" y="1165" type="line"/>
      <point x="107" y="1165" type="line"/>
    </contour>
    <contour>
      <point x="542" y="575" type="line"/>
      <point x="512" y="621" type="line"/>
      <point x="55" y="0" type="line"/>
      <point x="126" y="0" type="line"/>
    </contour>
  </outline>
</glyph>
<glyph name="uni041A.smcp" format="2">
  <advance width="952"/>
  <outline>
    <contour>
      <point x="222" y="1165" type="line"/>
      <point x="170" y="1165" type="line"/>
      <point x="170" y="0" type="line"/>
      <point x="222" y="0" type="line"/>
    </contour>
    <contour>
      <point x="849" y="1165" type="line"/>
      <point x="781" y="1165" type="line"/>
      <point x="370" y="625" type="line"/>
      <point x="204" y="625" type="line"/>
      <point x="203" y="573" type="line"/>
      <point x="390" y="573" type="line"/>
    </contour>
    <contour>
      <point x="825" y="0" type="line"/>
      <point x="897" y="0" type="line"/>
      <point x="390" y="621" type="line"/>
      <point x="361" y="575" type="line"/>
    </contour>
  </outline>
</glyph>
<glyph name="uni04BC.smcp" format="2">
  <advance width="1210"/>
  <anchor x="738" y="-10" name="bottom"/>
  <outline>
    <contour>
      <point x="741" y="-21" type="curve" smooth="yes"/>
      <point x="908" y="-21"/>
      <point x="1008" y="45"/>
      <point x="1072" y="111" type="curve"/>
      <point x="1044" y="150" type="line"/>
      <point x="972" y="74"/>
      <point x="874" y="30"/>
      <point x="741" y="30" type="curve" smooth="yes"/>
      <point x="484" y="30"/>
      <point x="372" y="257"/>
      <point x="372" y="494" type="curve" smooth="yes"/>
      <point x="372" y="634" type="line" smooth="yes"/>
      <point x="372" y="913"/>
      <point x="504" y="1129"/>
      <point x="723" y="1129" type="curve" smooth="yes"/>
      <point x="968" y="1129"/>
      <point x="1079" y="944"/>
      <point x="1079" y="696" type="curve" smooth="yes"/>
      <point x="1079" y="648" type="line"/>
      <point x="328" y="648" type="line" smooth="yes"/>
      <point x="168" y="648"/>
      <point x="87" y="741"/>
      <point x="87" y="906" type="curve"/>
      <point x="35" y="906" type="line"/>
      <point x="35" y="704"/>
      <point x="144" y="596"/>
      <point x="328" y="596" type="curve" smooth="yes"/>
      <point x="1131" y="596" type="line"/>
      <point x="1131" y="694" type="line" smooth="yes"/>
      <point x="1131" y="1006"/>
      <point x="972" y="1181"/>
      <point x="723" y="1181" type="curve" smooth="yes"/>
      <point x="495" y="1181"/>
      <point x="321" y="975"/>
      <point x="321" y="634" type="curve" smooth="yes"/>
      <point x="321" y="494" type="line" smooth="yes"/>
      <point x="321" y="192"/>
      <point x="475" y="-21"/>
    </contour>
  </outline>
</glyph>
